<?xml version="1.0" encoding="utf-8" standalone="no"?>
<!DOCTYPE svg PUBLIC "-//W3C//DTD SVG 1.1//EN"
  "http://www.w3.org/Graphics/SVG/1.1/DTD/svg11.dtd">
<svg xmlns:xlink="http://www.w3.org/1999/xlink" width="829.116062pt" height="382.186219pt" viewBox="0 0 829.116062 382.186219" xmlns="http://www.w3.org/2000/svg" version="1.1">
 <metadata>
  <rdf:RDF xmlns:dc="http://purl.org/dc/elements/1.1/" xmlns:cc="http://creativecommons.org/ns#" xmlns:rdf="http://www.w3.org/1999/02/22-rdf-syntax-ns#">
   <cc:Work>
    <dc:type rdf:resource="http://purl.org/dc/dcmitype/StillImage"/>
    <dc:date>2026-05-08T13:48:23.931822</dc:date>
    <dc:format>image/svg+xml</dc:format>
    <dc:creator>
     <cc:Agent>
      <dc:title>Matplotlib v3.10.8, https://matplotlib.org/</dc:title>
     </cc:Agent>
    </dc:creator>
   </cc:Work>
  </rdf:RDF>
 </metadata>
 <defs>
  <style type="text/css">*{stroke-linejoin: round; stroke-linecap: butt}</style>
 </defs>
 <g id="figure_1">
  <g id="patch_1">
   <path d="M 0 382.186219 
L 829.116062 382.186219 
L 829.116062 0 
L 0 0 
z
" style="fill: #ffffff"/>
  </g>
  <g id="axes_1">
   <g id="patch_2">
    <path d="M 43.78125 344.629969 
L 573.88125 344.629969 
L 573.88125 23.077969 
L 43.78125 23.077969 
z
" style="fill: #ffffff"/>
   </g>
   <g id="PathCollection_1">
    <path d="M 205.565016 44.240973 
C 206.609122 44.240973 207.610604 43.826145 208.348898 43.087851 
C 209.087193 42.349557 209.50202 41.348074 209.50202 40.303969 
C 209.50202 39.259863 209.087193 38.258381 208.348898 37.520087 
C 207.610604 36.781792 206.609122 36.366965 205.565016 36.366965 
C 204.520911 36.366965 203.519428 36.781792 202.781134 37.520087 
C 202.04284 38.258381 201.628012 39.259863 201.628012 40.303969 
C 201.628012 41.348074 202.04284 42.349557 202.781134 43.087851 
C 203.519428 43.826145 204.520911 44.240973 205.565016 44.240973 
z
" clip-path="url(#p30c27cf515)" style="fill: #5c7cfa; fill-opacity: 0.78; stroke: #ffffff; stroke-opacity: 0.78; stroke-width: 0.6"/>
    <path d="M 251.46112 44.831661 
C 252.661878 44.831661 253.813618 44.354595 254.662682 43.505531 
C 255.511746 42.656467 255.988813 41.504727 255.988813 40.303969 
C 255.988813 39.103211 255.511746 37.951471 254.662682 37.102407 
C 253.813618 36.253342 252.661878 35.776276 251.46112 35.776276 
C 250.260362 35.776276 249.108622 36.253342 248.259558 37.102407 
C 247.410494 37.951471 246.933428 39.103211 246.933428 40.303969 
C 246.933428 41.504727 247.410494 42.656467 248.259558 43.505531 
C 249.108622 44.354595 250.260362 44.831661 251.46112 44.831661 
z
" clip-path="url(#p30c27cf515)" style="fill: #5c7cfa; fill-opacity: 0.78; stroke: #ffffff; stroke-opacity: 0.78; stroke-width: 0.6"/>
   </g>
   <g id="PathCollection_2">
    <defs>
     <path id="mffcda3c4d0" d="M 0 5.049752 
C 1.33921 5.049752 2.62375 4.517679 3.570714 3.570714 
C 4.517679 2.62375 5.049752 1.33921 5.049752 0 
C 5.049752 -1.33921 4.517679 -2.62375 3.570714 -3.570714 
C 2.62375 -4.517679 1.33921 -5.049752 0 -5.049752 
C -1.33921 -5.049752 -2.62375 -4.517679 -3.570714 -3.570714 
C -4.517679 -2.62375 -5.049752 -1.33921 -5.049752 0 
C -5.049752 1.33921 -4.517679 2.62375 -3.570714 3.570714 
C -2.62375 4.517679 -1.33921 5.049752 0 5.049752 
z
" style="stroke: #ffffff; stroke-opacity: 0.78; stroke-width: 0.6"/>
    </defs>
    <g clip-path="url(#p30c27cf515)">
     <use xlink:href="#mffcda3c4d0" x="159.668912" y="205.386469" style="fill: #c77d20; fill-opacity: 0.78; stroke: #ffffff; stroke-opacity: 0.78; stroke-width: 0.6"/>
    </g>
   </g>
   <g id="PathCollection_3">
    <path d="M 366.20138 332.1998 
C 367.473249 332.1998 368.693197 331.694481 369.592545 330.795134 
C 370.491892 329.895786 370.997211 328.675838 370.997211 327.403969 
C 370.997211 326.132099 370.491892 324.912151 369.592545 324.012804 
C 368.693197 323.113456 367.473249 322.608137 366.20138 322.608137 
C 364.92951 322.608137 363.709562 323.113456 362.810215 324.012804 
C 361.910867 324.912151 361.405548 326.132099 361.405548 327.403969 
C 361.405548 328.675838 361.910867 329.895786 362.810215 330.795134 
C 363.709562 331.694481 364.92951 332.1998 366.20138 332.1998 
z
" clip-path="url(#p30c27cf515)" style="fill: #7c3aed; fill-opacity: 0.78; stroke: #ffffff; stroke-opacity: 0.78; stroke-width: 0.6"/>
    <path d="M 297.357224 331.340973 
C 298.40133 331.340973 299.402812 330.926145 300.141106 330.187851 
C 300.8794 329.449557 301.294228 328.448074 301.294228 327.403969 
C 301.294228 326.359863 300.8794 325.358381 300.141106 324.620087 
C 299.402812 323.881792 298.40133 323.466965 297.357224 323.466965 
C 296.313118 323.466965 295.311636 323.881792 294.573342 324.620087 
C 293.835048 325.358381 293.42022 326.359863 293.42022 327.403969 
C 293.42022 328.448074 293.835048 329.449557 294.573342 330.187851 
C 295.311636 330.926145 296.313118 331.340973 297.357224 331.340973 
z
" clip-path="url(#p30c27cf515)" style="fill: #7c3aed; fill-opacity: 0.78; stroke: #ffffff; stroke-opacity: 0.78; stroke-width: 0.6"/>
    <path d="M 228.513068 331.646609 
C 229.63823 331.646609 230.717459 331.199578 231.513068 330.403969 
C 232.308677 329.608359 232.755709 328.52913 232.755709 327.403969 
C 232.755709 326.278807 232.308677 325.199578 231.513068 324.403969 
C 230.717459 323.608359 229.63823 323.161328 228.513068 323.161328 
C 227.387907 323.161328 226.308677 323.608359 225.513068 324.403969 
C 224.717459 325.199578 224.270427 326.278807 224.270427 327.403969 
C 224.270427 328.52913 224.717459 329.608359 225.513068 330.403969 
C 226.308677 331.199578 227.387907 331.646609 228.513068 331.646609 
z
" clip-path="url(#p30c27cf515)" style="fill: #7c3aed; fill-opacity: 0.78; stroke: #ffffff; stroke-opacity: 0.78; stroke-width: 0.6"/>
    <path d="M 549.785795 331.931661 
C 550.986554 331.931661 552.138293 331.454595 552.987358 330.605531 
C 553.836422 329.756467 554.313488 328.604727 554.313488 327.403969 
C 554.313488 326.203211 553.836422 325.051471 552.987358 324.202407 
C 552.138293 323.353342 550.986554 322.876276 549.785795 322.876276 
C 548.585037 322.876276 547.433298 323.353342 546.584233 324.202407 
C 545.735169 325.051471 545.258103 326.203211 545.258103 327.403969 
C 545.258103 328.604727 545.735169 329.756467 546.584233 330.605531 
C 547.433298 331.454595 548.585037 331.931661 549.785795 331.931661 
z
" clip-path="url(#p30c27cf515)" style="fill: #7c3aed; fill-opacity: 0.78; stroke: #ffffff; stroke-opacity: 0.78; stroke-width: 0.6"/>
    <path d="M 90.824756 331.00952 
C 91.78096 331.00952 92.698128 330.629616 93.374266 329.953479 
C 94.050404 329.277341 94.430308 328.360172 94.430308 327.403969 
C 94.430308 326.447765 94.050404 325.530597 93.374266 324.854459 
C 92.698128 324.178321 91.78096 323.798417 90.824756 323.798417 
C 89.868553 323.798417 88.951385 324.178321 88.275247 324.854459 
C 87.599109 325.530597 87.219205 326.447765 87.219205 327.403969 
C 87.219205 328.360172 87.599109 329.277341 88.275247 329.953479 
C 88.951385 330.629616 89.868553 331.00952 90.824756 331.00952 
z
" clip-path="url(#p30c27cf515)" style="fill: #7c3aed; fill-opacity: 0.78; stroke: #ffffff; stroke-opacity: 0.78; stroke-width: 0.6"/>
   </g>
   <g id="PathCollection_4">
    <path d="M 251.46112 43.544339 
C 252.320476 43.544339 253.144751 43.202913 253.752408 42.595257 
C 254.360065 41.9876 254.70149 41.163325 254.70149 40.303969 
C 254.70149 39.444612 254.360065 38.620338 253.752408 38.012681 
C 253.144751 37.405024 252.320476 37.063598 251.46112 37.063598 
C 250.601764 37.063598 249.777489 37.405024 249.169832 38.012681 
C 248.562176 38.620338 248.22075 39.444612 248.22075 40.303969 
C 248.22075 41.163325 248.562176 41.9876 249.169832 42.595257 
C 249.777489 43.202913 250.601764 43.544339 251.46112 43.544339 
z
" clip-path="url(#p30c27cf515)" style="fill: #2f7d62; fill-opacity: 0.78; stroke: #ffffff; stroke-opacity: 0.78; stroke-width: 0.6"/>
    <path d="M 251.46112 43.544339 
C 252.320476 43.544339 253.144751 43.202913 253.752408 42.595257 
C 254.360065 41.9876 254.70149 41.163325 254.70149 40.303969 
C 254.70149 39.444612 254.360065 38.620338 253.752408 38.012681 
C 253.144751 37.405024 252.320476 37.063598 251.46112 37.063598 
C 250.601764 37.063598 249.777489 37.405024 249.169832 38.012681 
C 248.562176 38.620338 248.22075 39.444612 248.22075 40.303969 
C 248.22075 41.163325 248.562176 41.9876 249.169832 42.595257 
C 249.777489 43.202913 250.601764 43.544339 251.46112 43.544339 
z
" clip-path="url(#p30c27cf515)" style="fill: #2f7d62; fill-opacity: 0.78; stroke: #ffffff; stroke-opacity: 0.78; stroke-width: 0.6"/>
    <path d="M 251.46112 43.544339 
C 252.320476 43.544339 253.144751 43.202913 253.752408 42.595257 
C 254.360065 41.9876 254.70149 41.163325 254.70149 40.303969 
C 254.70149 39.444612 254.360065 38.620338 253.752408 38.012681 
C 253.144751 37.405024 252.320476 37.063598 251.46112 37.063598 
C 250.601764 37.063598 249.777489 37.405024 249.169832 38.012681 
C 248.562176 38.620338 248.22075 39.444612 248.22075 40.303969 
C 248.22075 41.163325 248.562176 41.9876 249.169832 42.595257 
C 249.777489 43.202913 250.601764 43.544339 251.46112 43.544339 
z
" clip-path="url(#p30c27cf515)" style="fill: #2f7d62; fill-opacity: 0.78; stroke: #ffffff; stroke-opacity: 0.78; stroke-width: 0.6"/>
    <path d="M 251.46112 43.544339 
C 252.320476 43.544339 253.144751 43.202913 253.752408 42.595257 
C 254.360065 41.9876 254.70149 41.163325 254.70149 40.303969 
C 254.70149 39.444612 254.360065 38.620338 253.752408 38.012681 
C 253.144751 37.405024 252.320476 37.063598 251.46112 37.063598 
C 250.601764 37.063598 249.777489 37.405024 249.169832 38.012681 
C 248.562176 38.620338 248.22075 39.444612 248.22075 40.303969 
C 248.22075 41.163325 248.562176 41.9876 249.169832 42.595257 
C 249.777489 43.202913 250.601764 43.544339 251.46112 43.544339 
z
" clip-path="url(#p30c27cf515)" style="fill: #2f7d62; fill-opacity: 0.78; stroke: #ffffff; stroke-opacity: 0.78; stroke-width: 0.6"/>
    <path d="M 251.46112 43.544339 
C 252.320476 43.544339 253.144751 43.202913 253.752408 42.595257 
C 254.360065 41.9876 254.70149 41.163325 254.70149 40.303969 
C 254.70149 39.444612 254.360065 38.620338 253.752408 38.012681 
C 253.144751 37.405024 252.320476 37.063598 251.46112 37.063598 
C 250.601764 37.063598 249.777489 37.405024 249.169832 38.012681 
C 248.562176 38.620338 248.22075 39.444612 248.22075 40.303969 
C 248.22075 41.163325 248.562176 41.9876 249.169832 42.595257 
C 249.777489 43.202913 250.601764 43.544339 251.46112 43.544339 
z
" clip-path="url(#p30c27cf515)" style="fill: #2f7d62; fill-opacity: 0.78; stroke: #ffffff; stroke-opacity: 0.78; stroke-width: 0.6"/>
    <path d="M 251.46112 43.544339 
C 252.320476 43.544339 253.144751 43.202913 253.752408 42.595257 
C 254.360065 41.9876 254.70149 41.163325 254.70149 40.303969 
C 254.70149 39.444612 254.360065 38.620338 253.752408 38.012681 
C 253.144751 37.405024 252.320476 37.063598 251.46112 37.063598 
C 250.601764 37.063598 249.777489 37.405024 249.169832 38.012681 
C 248.562176 38.620338 248.22075 39.444612 248.22075 40.303969 
C 248.22075 41.163325 248.562176 41.9876 249.169832 42.595257 
C 249.777489 43.202913 250.601764 43.544339 251.46112 43.544339 
z
" clip-path="url(#p30c27cf515)" style="fill: #2f7d62; fill-opacity: 0.78; stroke: #ffffff; stroke-opacity: 0.78; stroke-width: 0.6"/>
    <path d="M 251.46112 43.544339 
C 252.320476 43.544339 253.144751 43.202913 253.752408 42.595257 
C 254.360065 41.9876 254.70149 41.163325 254.70149 40.303969 
C 254.70149 39.444612 254.360065 38.620338 253.752408 38.012681 
C 253.144751 37.405024 252.320476 37.063598 251.46112 37.063598 
C 250.601764 37.063598 249.777489 37.405024 249.169832 38.012681 
C 248.562176 38.620338 248.22075 39.444612 248.22075 40.303969 
C 248.22075 41.163325 248.562176 41.9876 249.169832 42.595257 
C 249.777489 43.202913 250.601764 43.544339 251.46112 43.544339 
z
" clip-path="url(#p30c27cf515)" style="fill: #2f7d62; fill-opacity: 0.78; stroke: #ffffff; stroke-opacity: 0.78; stroke-width: 0.6"/>
    <path d="M 251.46112 43.544339 
C 252.320476 43.544339 253.144751 43.202913 253.752408 42.595257 
C 254.360065 41.9876 254.70149 41.163325 254.70149 40.303969 
C 254.70149 39.444612 254.360065 38.620338 253.752408 38.012681 
C 253.144751 37.405024 252.320476 37.063598 251.46112 37.063598 
C 250.601764 37.063598 249.777489 37.405024 249.169832 38.012681 
C 248.562176 38.620338 248.22075 39.444612 248.22075 40.303969 
C 248.22075 41.163325 248.562176 41.9876 249.169832 42.595257 
C 249.777489 43.202913 250.601764 43.544339 251.46112 43.544339 
z
" clip-path="url(#p30c27cf515)" style="fill: #2f7d62; fill-opacity: 0.78; stroke: #ffffff; stroke-opacity: 0.78; stroke-width: 0.6"/>
    <path d="M 251.46112 43.544339 
C 252.320476 43.544339 253.144751 43.202913 253.752408 42.595257 
C 254.360065 41.9876 254.70149 41.163325 254.70149 40.303969 
C 254.70149 39.444612 254.360065 38.620338 253.752408 38.012681 
C 253.144751 37.405024 252.320476 37.063598 251.46112 37.063598 
C 250.601764 37.063598 249.777489 37.405024 249.169832 38.012681 
C 248.562176 38.620338 248.22075 39.444612 248.22075 40.303969 
C 248.22075 41.163325 248.562176 41.9876 249.169832 42.595257 
C 249.777489 43.202913 250.601764 43.544339 251.46112 43.544339 
z
" clip-path="url(#p30c27cf515)" style="fill: #2f7d62; fill-opacity: 0.78; stroke: #ffffff; stroke-opacity: 0.78; stroke-width: 0.6"/>
    <path d="M 251.46112 43.544339 
C 252.320476 43.544339 253.144751 43.202913 253.752408 42.595257 
C 254.360065 41.9876 254.70149 41.163325 254.70149 40.303969 
C 254.70149 39.444612 254.360065 38.620338 253.752408 38.012681 
C 253.144751 37.405024 252.320476 37.063598 251.46112 37.063598 
C 250.601764 37.063598 249.777489 37.405024 249.169832 38.012681 
C 248.562176 38.620338 248.22075 39.444612 248.22075 40.303969 
C 248.22075 41.163325 248.562176 41.9876 249.169832 42.595257 
C 249.777489 43.202913 250.601764 43.544339 251.46112 43.544339 
z
" clip-path="url(#p30c27cf515)" style="fill: #2f7d62; fill-opacity: 0.78; stroke: #ffffff; stroke-opacity: 0.78; stroke-width: 0.6"/>
    <path d="M 251.46112 43.544339 
C 252.320476 43.544339 253.144751 43.202913 253.752408 42.595257 
C 254.360065 41.9876 254.70149 41.163325 254.70149 40.303969 
C 254.70149 39.444612 254.360065 38.620338 253.752408 38.012681 
C 253.144751 37.405024 252.320476 37.063598 251.46112 37.063598 
C 250.601764 37.063598 249.777489 37.405024 249.169832 38.012681 
C 248.562176 38.620338 248.22075 39.444612 248.22075 40.303969 
C 248.22075 41.163325 248.562176 41.9876 249.169832 42.595257 
C 249.777489 43.202913 250.601764 43.544339 251.46112 43.544339 
z
" clip-path="url(#p30c27cf515)" style="fill: #2f7d62; fill-opacity: 0.78; stroke: #ffffff; stroke-opacity: 0.78; stroke-width: 0.6"/>
    <path d="M 251.46112 43.544339 
C 252.320476 43.544339 253.144751 43.202913 253.752408 42.595257 
C 254.360065 41.9876 254.70149 41.163325 254.70149 40.303969 
C 254.70149 39.444612 254.360065 38.620338 253.752408 38.012681 
C 253.144751 37.405024 252.320476 37.063598 251.46112 37.063598 
C 250.601764 37.063598 249.777489 37.405024 249.169832 38.012681 
C 248.562176 38.620338 248.22075 39.444612 248.22075 40.303969 
C 248.22075 41.163325 248.562176 41.9876 249.169832 42.595257 
C 249.777489 43.202913 250.601764 43.544339 251.46112 43.544339 
z
" clip-path="url(#p30c27cf515)" style="fill: #2f7d62; fill-opacity: 0.78; stroke: #ffffff; stroke-opacity: 0.78; stroke-width: 0.6"/>
    <path d="M 251.46112 43.544339 
C 252.320476 43.544339 253.144751 43.202913 253.752408 42.595257 
C 254.360065 41.9876 254.70149 41.163325 254.70149 40.303969 
C 254.70149 39.444612 254.360065 38.620338 253.752408 38.012681 
C 253.144751 37.405024 252.320476 37.063598 251.46112 37.063598 
C 250.601764 37.063598 249.777489 37.405024 249.169832 38.012681 
C 248.562176 38.620338 248.22075 39.444612 248.22075 40.303969 
C 248.22075 41.163325 248.562176 41.9876 249.169832 42.595257 
C 249.777489 43.202913 250.601764 43.544339 251.46112 43.544339 
z
" clip-path="url(#p30c27cf515)" style="fill: #2f7d62; fill-opacity: 0.78; stroke: #ffffff; stroke-opacity: 0.78; stroke-width: 0.6"/>
    <path d="M 251.46112 43.544339 
C 252.320476 43.544339 253.144751 43.202913 253.752408 42.595257 
C 254.360065 41.9876 254.70149 41.163325 254.70149 40.303969 
C 254.70149 39.444612 254.360065 38.620338 253.752408 38.012681 
C 253.144751 37.405024 252.320476 37.063598 251.46112 37.063598 
C 250.601764 37.063598 249.777489 37.405024 249.169832 38.012681 
C 248.562176 38.620338 248.22075 39.444612 248.22075 40.303969 
C 248.22075 41.163325 248.562176 41.9876 249.169832 42.595257 
C 249.777489 43.202913 250.601764 43.544339 251.46112 43.544339 
z
" clip-path="url(#p30c27cf515)" style="fill: #2f7d62; fill-opacity: 0.78; stroke: #ffffff; stroke-opacity: 0.78; stroke-width: 0.6"/>
    <path d="M 251.46112 43.544339 
C 252.320476 43.544339 253.144751 43.202913 253.752408 42.595257 
C 254.360065 41.9876 254.70149 41.163325 254.70149 40.303969 
C 254.70149 39.444612 254.360065 38.620338 253.752408 38.012681 
C 253.144751 37.405024 252.320476 37.063598 251.46112 37.063598 
C 250.601764 37.063598 249.777489 37.405024 249.169832 38.012681 
C 248.562176 38.620338 248.22075 39.444612 248.22075 40.303969 
C 248.22075 41.163325 248.562176 41.9876 249.169832 42.595257 
C 249.777489 43.202913 250.601764 43.544339 251.46112 43.544339 
z
" clip-path="url(#p30c27cf515)" style="fill: #2f7d62; fill-opacity: 0.78; stroke: #ffffff; stroke-opacity: 0.78; stroke-width: 0.6"/>
    <path d="M 251.46112 43.544339 
C 252.320476 43.544339 253.144751 43.202913 253.752408 42.595257 
C 254.360065 41.9876 254.70149 41.163325 254.70149 40.303969 
C 254.70149 39.444612 254.360065 38.620338 253.752408 38.012681 
C 253.144751 37.405024 252.320476 37.063598 251.46112 37.063598 
C 250.601764 37.063598 249.777489 37.405024 249.169832 38.012681 
C 248.562176 38.620338 248.22075 39.444612 248.22075 40.303969 
C 248.22075 41.163325 248.562176 41.9876 249.169832 42.595257 
C 249.777489 43.202913 250.601764 43.544339 251.46112 43.544339 
z
" clip-path="url(#p30c27cf515)" style="fill: #2f7d62; fill-opacity: 0.78; stroke: #ffffff; stroke-opacity: 0.78; stroke-width: 0.6"/>
    <path d="M 251.46112 43.544339 
C 252.320476 43.544339 253.144751 43.202913 253.752408 42.595257 
C 254.360065 41.9876 254.70149 41.163325 254.70149 40.303969 
C 254.70149 39.444612 254.360065 38.620338 253.752408 38.012681 
C 253.144751 37.405024 252.320476 37.063598 251.46112 37.063598 
C 250.601764 37.063598 249.777489 37.405024 249.169832 38.012681 
C 248.562176 38.620338 248.22075 39.444612 248.22075 40.303969 
C 248.22075 41.163325 248.562176 41.9876 249.169832 42.595257 
C 249.777489 43.202913 250.601764 43.544339 251.46112 43.544339 
z
" clip-path="url(#p30c27cf515)" style="fill: #2f7d62; fill-opacity: 0.78; stroke: #ffffff; stroke-opacity: 0.78; stroke-width: 0.6"/>
    <path d="M 251.46112 43.544339 
C 252.320476 43.544339 253.144751 43.202913 253.752408 42.595257 
C 254.360065 41.9876 254.70149 41.163325 254.70149 40.303969 
C 254.70149 39.444612 254.360065 38.620338 253.752408 38.012681 
C 253.144751 37.405024 252.320476 37.063598 251.46112 37.063598 
C 250.601764 37.063598 249.777489 37.405024 249.169832 38.012681 
C 248.562176 38.620338 248.22075 39.444612 248.22075 40.303969 
C 248.22075 41.163325 248.562176 41.9876 249.169832 42.595257 
C 249.777489 43.202913 250.601764 43.544339 251.46112 43.544339 
z
" clip-path="url(#p30c27cf515)" style="fill: #2f7d62; fill-opacity: 0.78; stroke: #ffffff; stroke-opacity: 0.78; stroke-width: 0.6"/>
    <path d="M 251.46112 43.544339 
C 252.320476 43.544339 253.144751 43.202913 253.752408 42.595257 
C 254.360065 41.9876 254.70149 41.163325 254.70149 40.303969 
C 254.70149 39.444612 254.360065 38.620338 253.752408 38.012681 
C 253.144751 37.405024 252.320476 37.063598 251.46112 37.063598 
C 250.601764 37.063598 249.777489 37.405024 249.169832 38.012681 
C 248.562176 38.620338 248.22075 39.444612 248.22075 40.303969 
C 248.22075 41.163325 248.562176 41.9876 249.169832 42.595257 
C 249.777489 43.202913 250.601764 43.544339 251.46112 43.544339 
z
" clip-path="url(#p30c27cf515)" style="fill: #2f7d62; fill-opacity: 0.78; stroke: #ffffff; stroke-opacity: 0.78; stroke-width: 0.6"/>
    <path d="M 251.46112 43.544339 
C 252.320476 43.544339 253.144751 43.202913 253.752408 42.595257 
C 254.360065 41.9876 254.70149 41.163325 254.70149 40.303969 
C 254.70149 39.444612 254.360065 38.620338 253.752408 38.012681 
C 253.144751 37.405024 252.320476 37.063598 251.46112 37.063598 
C 250.601764 37.063598 249.777489 37.405024 249.169832 38.012681 
C 248.562176 38.620338 248.22075 39.444612 248.22075 40.303969 
C 248.22075 41.163325 248.562176 41.9876 249.169832 42.595257 
C 249.777489 43.202913 250.601764 43.544339 251.46112 43.544339 
z
" clip-path="url(#p30c27cf515)" style="fill: #2f7d62; fill-opacity: 0.78; stroke: #ffffff; stroke-opacity: 0.78; stroke-width: 0.6"/>
    <path d="M 343.253328 43.544339 
C 344.112684 43.544339 344.936959 43.202913 345.544616 42.595257 
C 346.152272 41.9876 346.493698 41.163325 346.493698 40.303969 
C 346.493698 39.444612 346.152272 38.620338 345.544616 38.012681 
C 344.936959 37.405024 344.112684 37.063598 343.253328 37.063598 
C 342.393972 37.063598 341.569697 37.405024 340.96204 38.012681 
C 340.354383 38.620338 340.012958 39.444612 340.012958 40.303969 
C 340.012958 41.163325 340.354383 41.9876 340.96204 42.595257 
C 341.569697 43.202913 342.393972 43.544339 343.253328 43.544339 
z
" clip-path="url(#p30c27cf515)" style="fill: #2f7d62; fill-opacity: 0.78; stroke: #ffffff; stroke-opacity: 0.78; stroke-width: 0.6"/>
    <path d="M 343.253328 43.544339 
C 344.112684 43.544339 344.936959 43.202913 345.544616 42.595257 
C 346.152272 41.9876 346.493698 41.163325 346.493698 40.303969 
C 346.493698 39.444612 346.152272 38.620338 345.544616 38.012681 
C 344.936959 37.405024 344.112684 37.063598 343.253328 37.063598 
C 342.393972 37.063598 341.569697 37.405024 340.96204 38.012681 
C 340.354383 38.620338 340.012958 39.444612 340.012958 40.303969 
C 340.012958 41.163325 340.354383 41.9876 340.96204 42.595257 
C 341.569697 43.202913 342.393972 43.544339 343.253328 43.544339 
z
" clip-path="url(#p30c27cf515)" style="fill: #2f7d62; fill-opacity: 0.78; stroke: #ffffff; stroke-opacity: 0.78; stroke-width: 0.6"/>
    <path d="M 251.46112 43.544339 
C 252.320476 43.544339 253.144751 43.202913 253.752408 42.595257 
C 254.360065 41.9876 254.70149 41.163325 254.70149 40.303969 
C 254.70149 39.444612 254.360065 38.620338 253.752408 38.012681 
C 253.144751 37.405024 252.320476 37.063598 251.46112 37.063598 
C 250.601764 37.063598 249.777489 37.405024 249.169832 38.012681 
C 248.562176 38.620338 248.22075 39.444612 248.22075 40.303969 
C 248.22075 41.163325 248.562176 41.9876 249.169832 42.595257 
C 249.777489 43.202913 250.601764 43.544339 251.46112 43.544339 
z
" clip-path="url(#p30c27cf515)" style="fill: #2f7d62; fill-opacity: 0.78; stroke: #ffffff; stroke-opacity: 0.78; stroke-width: 0.6"/>
    <path d="M 251.46112 43.544339 
C 252.320476 43.544339 253.144751 43.202913 253.752408 42.595257 
C 254.360065 41.9876 254.70149 41.163325 254.70149 40.303969 
C 254.70149 39.444612 254.360065 38.620338 253.752408 38.012681 
C 253.144751 37.405024 252.320476 37.063598 251.46112 37.063598 
C 250.601764 37.063598 249.777489 37.405024 249.169832 38.012681 
C 248.562176 38.620338 248.22075 39.444612 248.22075 40.303969 
C 248.22075 41.163325 248.562176 41.9876 249.169832 42.595257 
C 249.777489 43.202913 250.601764 43.544339 251.46112 43.544339 
z
" clip-path="url(#p30c27cf515)" style="fill: #2f7d62; fill-opacity: 0.78; stroke: #ffffff; stroke-opacity: 0.78; stroke-width: 0.6"/>
    <path d="M 251.46112 43.544339 
C 252.320476 43.544339 253.144751 43.202913 253.752408 42.595257 
C 254.360065 41.9876 254.70149 41.163325 254.70149 40.303969 
C 254.70149 39.444612 254.360065 38.620338 253.752408 38.012681 
C 253.144751 37.405024 252.320476 37.063598 251.46112 37.063598 
C 250.601764 37.063598 249.777489 37.405024 249.169832 38.012681 
C 248.562176 38.620338 248.22075 39.444612 248.22075 40.303969 
C 248.22075 41.163325 248.562176 41.9876 249.169832 42.595257 
C 249.777489 43.202913 250.601764 43.544339 251.46112 43.544339 
z
" clip-path="url(#p30c27cf515)" style="fill: #2f7d62; fill-opacity: 0.78; stroke: #ffffff; stroke-opacity: 0.78; stroke-width: 0.6"/>
   </g>
   <g id="PathCollection_5">
    <path d="M 274.409172 331.00952 
C 275.365375 331.00952 276.282544 330.629616 276.958682 329.953479 
C 277.63482 329.277341 278.014723 328.360172 278.014723 327.403969 
C 278.014723 326.447765 277.63482 325.530597 276.958682 324.854459 
C 276.282544 324.178321 275.365375 323.798417 274.409172 323.798417 
C 273.452969 323.798417 272.5358 324.178321 271.859662 324.854459 
C 271.183524 325.530597 270.803621 326.447765 270.803621 327.403969 
C 270.803621 328.360172 271.183524 329.277341 271.859662 329.953479 
C 272.5358 330.629616 273.452969 331.00952 274.409172 331.00952 
z
" clip-path="url(#p30c27cf515)" style="fill: #b64f4f; fill-opacity: 0.78; stroke: #ffffff; stroke-opacity: 0.78; stroke-width: 0.6"/>
    <path d="M 251.46112 330.644339 
C 252.320476 330.644339 253.144751 330.302913 253.752408 329.695257 
C 254.360065 329.0876 254.70149 328.263325 254.70149 327.403969 
C 254.70149 326.544612 254.360065 325.720338 253.752408 325.112681 
C 253.144751 324.505024 252.320476 324.163598 251.46112 324.163598 
C 250.601764 324.163598 249.777489 324.505024 249.169832 325.112681 
C 248.562176 325.720338 248.22075 326.544612 248.22075 327.403969 
C 248.22075 328.263325 248.562176 329.0876 249.169832 329.695257 
C 249.777489 330.302913 250.601764 330.644339 251.46112 330.644339 
z
" clip-path="url(#p30c27cf515)" style="fill: #b64f4f; fill-opacity: 0.78; stroke: #ffffff; stroke-opacity: 0.78; stroke-width: 0.6"/>
    <path d="M 251.46112 330.644339 
C 252.320476 330.644339 253.144751 330.302913 253.752408 329.695257 
C 254.360065 329.0876 254.70149 328.263325 254.70149 327.403969 
C 254.70149 326.544612 254.360065 325.720338 253.752408 325.112681 
C 253.144751 324.505024 252.320476 324.163598 251.46112 324.163598 
C 250.601764 324.163598 249.777489 324.505024 249.169832 325.112681 
C 248.562176 325.720338 248.22075 326.544612 248.22075 327.403969 
C 248.22075 328.263325 248.562176 329.0876 249.169832 329.695257 
C 249.777489 330.302913 250.601764 330.644339 251.46112 330.644339 
z
" clip-path="url(#p30c27cf515)" style="fill: #b64f4f; fill-opacity: 0.78; stroke: #ffffff; stroke-opacity: 0.78; stroke-width: 0.6"/>
    <path d="M 251.46112 330.644339 
C 252.320476 330.644339 253.144751 330.302913 253.752408 329.695257 
C 254.360065 329.0876 254.70149 328.263325 254.70149 327.403969 
C 254.70149 326.544612 254.360065 325.720338 253.752408 325.112681 
C 253.144751 324.505024 252.320476 324.163598 251.46112 324.163598 
C 250.601764 324.163598 249.777489 324.505024 249.169832 325.112681 
C 248.562176 325.720338 248.22075 326.544612 248.22075 327.403969 
C 248.22075 328.263325 248.562176 329.0876 249.169832 329.695257 
C 249.777489 330.302913 250.601764 330.644339 251.46112 330.644339 
z
" clip-path="url(#p30c27cf515)" style="fill: #b64f4f; fill-opacity: 0.78; stroke: #ffffff; stroke-opacity: 0.78; stroke-width: 0.6"/>
    <path d="M 251.46112 330.644339 
C 252.320476 330.644339 253.144751 330.302913 253.752408 329.695257 
C 254.360065 329.0876 254.70149 328.263325 254.70149 327.403969 
C 254.70149 326.544612 254.360065 325.720338 253.752408 325.112681 
C 253.144751 324.505024 252.320476 324.163598 251.46112 324.163598 
C 250.601764 324.163598 249.777489 324.505024 249.169832 325.112681 
C 248.562176 325.720338 248.22075 326.544612 248.22075 327.403969 
C 248.22075 328.263325 248.562176 329.0876 249.169832 329.695257 
C 249.777489 330.302913 250.601764 330.644339 251.46112 330.644339 
z
" clip-path="url(#p30c27cf515)" style="fill: #b64f4f; fill-opacity: 0.78; stroke: #ffffff; stroke-opacity: 0.78; stroke-width: 0.6"/>
    <path d="M 251.46112 330.644339 
C 252.320476 330.644339 253.144751 330.302913 253.752408 329.695257 
C 254.360065 329.0876 254.70149 328.263325 254.70149 327.403969 
C 254.70149 326.544612 254.360065 325.720338 253.752408 325.112681 
C 253.144751 324.505024 252.320476 324.163598 251.46112 324.163598 
C 250.601764 324.163598 249.777489 324.505024 249.169832 325.112681 
C 248.562176 325.720338 248.22075 326.544612 248.22075 327.403969 
C 248.22075 328.263325 248.562176 329.0876 249.169832 329.695257 
C 249.777489 330.302913 250.601764 330.644339 251.46112 330.644339 
z
" clip-path="url(#p30c27cf515)" style="fill: #b64f4f; fill-opacity: 0.78; stroke: #ffffff; stroke-opacity: 0.78; stroke-width: 0.6"/>
    <path d="M 251.46112 330.644339 
C 252.320476 330.644339 253.144751 330.302913 253.752408 329.695257 
C 254.360065 329.0876 254.70149 328.263325 254.70149 327.403969 
C 254.70149 326.544612 254.360065 325.720338 253.752408 325.112681 
C 253.144751 324.505024 252.320476 324.163598 251.46112 324.163598 
C 250.601764 324.163598 249.777489 324.505024 249.169832 325.112681 
C 248.562176 325.720338 248.22075 326.544612 248.22075 327.403969 
C 248.22075 328.263325 248.562176 329.0876 249.169832 329.695257 
C 249.777489 330.302913 250.601764 330.644339 251.46112 330.644339 
z
" clip-path="url(#p30c27cf515)" style="fill: #b64f4f; fill-opacity: 0.78; stroke: #ffffff; stroke-opacity: 0.78; stroke-width: 0.6"/>
    <path d="M 251.46112 330.644339 
C 252.320476 330.644339 253.144751 330.302913 253.752408 329.695257 
C 254.360065 329.0876 254.70149 328.263325 254.70149 327.403969 
C 254.70149 326.544612 254.360065 325.720338 253.752408 325.112681 
C 253.144751 324.505024 252.320476 324.163598 251.46112 324.163598 
C 250.601764 324.163598 249.777489 324.505024 249.169832 325.112681 
C 248.562176 325.720338 248.22075 326.544612 248.22075 327.403969 
C 248.22075 328.263325 248.562176 329.0876 249.169832 329.695257 
C 249.777489 330.302913 250.601764 330.644339 251.46112 330.644339 
z
" clip-path="url(#p30c27cf515)" style="fill: #b64f4f; fill-opacity: 0.78; stroke: #ffffff; stroke-opacity: 0.78; stroke-width: 0.6"/>
    <path d="M 251.46112 330.644339 
C 252.320476 330.644339 253.144751 330.302913 253.752408 329.695257 
C 254.360065 329.0876 254.70149 328.263325 254.70149 327.403969 
C 254.70149 326.544612 254.360065 325.720338 253.752408 325.112681 
C 253.144751 324.505024 252.320476 324.163598 251.46112 324.163598 
C 250.601764 324.163598 249.777489 324.505024 249.169832 325.112681 
C 248.562176 325.720338 248.22075 326.544612 248.22075 327.403969 
C 248.22075 328.263325 248.562176 329.0876 249.169832 329.695257 
C 249.777489 330.302913 250.601764 330.644339 251.46112 330.644339 
z
" clip-path="url(#p30c27cf515)" style="fill: #b64f4f; fill-opacity: 0.78; stroke: #ffffff; stroke-opacity: 0.78; stroke-width: 0.6"/>
    <path d="M 251.46112 330.644339 
C 252.320476 330.644339 253.144751 330.302913 253.752408 329.695257 
C 254.360065 329.0876 254.70149 328.263325 254.70149 327.403969 
C 254.70149 326.544612 254.360065 325.720338 253.752408 325.112681 
C 253.144751 324.505024 252.320476 324.163598 251.46112 324.163598 
C 250.601764 324.163598 249.777489 324.505024 249.169832 325.112681 
C 248.562176 325.720338 248.22075 326.544612 248.22075 327.403969 
C 248.22075 328.263325 248.562176 329.0876 249.169832 329.695257 
C 249.777489 330.302913 250.601764 330.644339 251.46112 330.644339 
z
" clip-path="url(#p30c27cf515)" style="fill: #b64f4f; fill-opacity: 0.78; stroke: #ffffff; stroke-opacity: 0.78; stroke-width: 0.6"/>
    <path d="M 251.46112 330.644339 
C 252.320476 330.644339 253.144751 330.302913 253.752408 329.695257 
C 254.360065 329.0876 254.70149 328.263325 254.70149 327.403969 
C 254.70149 326.544612 254.360065 325.720338 253.752408 325.112681 
C 253.144751 324.505024 252.320476 324.163598 251.46112 324.163598 
C 250.601764 324.163598 249.777489 324.505024 249.169832 325.112681 
C 248.562176 325.720338 248.22075 326.544612 248.22075 327.403969 
C 248.22075 328.263325 248.562176 329.0876 249.169832 329.695257 
C 249.777489 330.302913 250.601764 330.644339 251.46112 330.644339 
z
" clip-path="url(#p30c27cf515)" style="fill: #b64f4f; fill-opacity: 0.78; stroke: #ffffff; stroke-opacity: 0.78; stroke-width: 0.6"/>
    <path d="M 251.46112 330.644339 
C 252.320476 330.644339 253.144751 330.302913 253.752408 329.695257 
C 254.360065 329.0876 254.70149 328.263325 254.70149 327.403969 
C 254.70149 326.544612 254.360065 325.720338 253.752408 325.112681 
C 253.144751 324.505024 252.320476 324.163598 251.46112 324.163598 
C 250.601764 324.163598 249.777489 324.505024 249.169832 325.112681 
C 248.562176 325.720338 248.22075 326.544612 248.22075 327.403969 
C 248.22075 328.263325 248.562176 329.0876 249.169832 329.695257 
C 249.777489 330.302913 250.601764 330.644339 251.46112 330.644339 
z
" clip-path="url(#p30c27cf515)" style="fill: #b64f4f; fill-opacity: 0.78; stroke: #ffffff; stroke-opacity: 0.78; stroke-width: 0.6"/>
    <path d="M 251.46112 330.644339 
C 252.320476 330.644339 253.144751 330.302913 253.752408 329.695257 
C 254.360065 329.0876 254.70149 328.263325 254.70149 327.403969 
C 254.70149 326.544612 254.360065 325.720338 253.752408 325.112681 
C 253.144751 324.505024 252.320476 324.163598 251.46112 324.163598 
C 250.601764 324.163598 249.777489 324.505024 249.169832 325.112681 
C 248.562176 325.720338 248.22075 326.544612 248.22075 327.403969 
C 248.22075 328.263325 248.562176 329.0876 249.169832 329.695257 
C 249.777489 330.302913 250.601764 330.644339 251.46112 330.644339 
z
" clip-path="url(#p30c27cf515)" style="fill: #b64f4f; fill-opacity: 0.78; stroke: #ffffff; stroke-opacity: 0.78; stroke-width: 0.6"/>
    <path d="M 251.46112 330.644339 
C 252.320476 330.644339 253.144751 330.302913 253.752408 329.695257 
C 254.360065 329.0876 254.70149 328.263325 254.70149 327.403969 
C 254.70149 326.544612 254.360065 325.720338 253.752408 325.112681 
C 253.144751 324.505024 252.320476 324.163598 251.46112 324.163598 
C 250.601764 324.163598 249.777489 324.505024 249.169832 325.112681 
C 248.562176 325.720338 248.22075 326.544612 248.22075 327.403969 
C 248.22075 328.263325 248.562176 329.0876 249.169832 329.695257 
C 249.777489 330.302913 250.601764 330.644339 251.46112 330.644339 
z
" clip-path="url(#p30c27cf515)" style="fill: #b64f4f; fill-opacity: 0.78; stroke: #ffffff; stroke-opacity: 0.78; stroke-width: 0.6"/>
    <path d="M 251.46112 330.644339 
C 252.320476 330.644339 253.144751 330.302913 253.752408 329.695257 
C 254.360065 329.0876 254.70149 328.263325 254.70149 327.403969 
C 254.70149 326.544612 254.360065 325.720338 253.752408 325.112681 
C 253.144751 324.505024 252.320476 324.163598 251.46112 324.163598 
C 250.601764 324.163598 249.777489 324.505024 249.169832 325.112681 
C 248.562176 325.720338 248.22075 326.544612 248.22075 327.403969 
C 248.22075 328.263325 248.562176 329.0876 249.169832 329.695257 
C 249.777489 330.302913 250.601764 330.644339 251.46112 330.644339 
z
" clip-path="url(#p30c27cf515)" style="fill: #b64f4f; fill-opacity: 0.78; stroke: #ffffff; stroke-opacity: 0.78; stroke-width: 0.6"/>
    <path d="M 251.46112 330.644339 
C 252.320476 330.644339 253.144751 330.302913 253.752408 329.695257 
C 254.360065 329.0876 254.70149 328.263325 254.70149 327.403969 
C 254.70149 326.544612 254.360065 325.720338 253.752408 325.112681 
C 253.144751 324.505024 252.320476 324.163598 251.46112 324.163598 
C 250.601764 324.163598 249.777489 324.505024 249.169832 325.112681 
C 248.562176 325.720338 248.22075 326.544612 248.22075 327.403969 
C 248.22075 328.263325 248.562176 329.0876 249.169832 329.695257 
C 249.777489 330.302913 250.601764 330.644339 251.46112 330.644339 
z
" clip-path="url(#p30c27cf515)" style="fill: #b64f4f; fill-opacity: 0.78; stroke: #ffffff; stroke-opacity: 0.78; stroke-width: 0.6"/>
    <path d="M 251.46112 330.644339 
C 252.320476 330.644339 253.144751 330.302913 253.752408 329.695257 
C 254.360065 329.0876 254.70149 328.263325 254.70149 327.403969 
C 254.70149 326.544612 254.360065 325.720338 253.752408 325.112681 
C 253.144751 324.505024 252.320476 324.163598 251.46112 324.163598 
C 250.601764 324.163598 249.777489 324.505024 249.169832 325.112681 
C 248.562176 325.720338 248.22075 326.544612 248.22075 327.403969 
C 248.22075 328.263325 248.562176 329.0876 249.169832 329.695257 
C 249.777489 330.302913 250.601764 330.644339 251.46112 330.644339 
z
" clip-path="url(#p30c27cf515)" style="fill: #b64f4f; fill-opacity: 0.78; stroke: #ffffff; stroke-opacity: 0.78; stroke-width: 0.6"/>
    <path d="M 251.46112 330.644339 
C 252.320476 330.644339 253.144751 330.302913 253.752408 329.695257 
C 254.360065 329.0876 254.70149 328.263325 254.70149 327.403969 
C 254.70149 326.544612 254.360065 325.720338 253.752408 325.112681 
C 253.144751 324.505024 252.320476 324.163598 251.46112 324.163598 
C 250.601764 324.163598 249.777489 324.505024 249.169832 325.112681 
C 248.562176 325.720338 248.22075 326.544612 248.22075 327.403969 
C 248.22075 328.263325 248.562176 329.0876 249.169832 329.695257 
C 249.777489 330.302913 250.601764 330.644339 251.46112 330.644339 
z
" clip-path="url(#p30c27cf515)" style="fill: #b64f4f; fill-opacity: 0.78; stroke: #ffffff; stroke-opacity: 0.78; stroke-width: 0.6"/>
    <path d="M 251.46112 330.644339 
C 252.320476 330.644339 253.144751 330.302913 253.752408 329.695257 
C 254.360065 329.0876 254.70149 328.263325 254.70149 327.403969 
C 254.70149 326.544612 254.360065 325.720338 253.752408 325.112681 
C 253.144751 324.505024 252.320476 324.163598 251.46112 324.163598 
C 250.601764 324.163598 249.777489 324.505024 249.169832 325.112681 
C 248.562176 325.720338 248.22075 326.544612 248.22075 327.403969 
C 248.22075 328.263325 248.562176 329.0876 249.169832 329.695257 
C 249.777489 330.302913 250.601764 330.644339 251.46112 330.644339 
z
" clip-path="url(#p30c27cf515)" style="fill: #b64f4f; fill-opacity: 0.78; stroke: #ffffff; stroke-opacity: 0.78; stroke-width: 0.6"/>
    <path d="M 251.46112 330.644339 
C 252.320476 330.644339 253.144751 330.302913 253.752408 329.695257 
C 254.360065 329.0876 254.70149 328.263325 254.70149 327.403969 
C 254.70149 326.544612 254.360065 325.720338 253.752408 325.112681 
C 253.144751 324.505024 252.320476 324.163598 251.46112 324.163598 
C 250.601764 324.163598 249.777489 324.505024 249.169832 325.112681 
C 248.562176 325.720338 248.22075 326.544612 248.22075 327.403969 
C 248.22075 328.263325 248.562176 329.0876 249.169832 329.695257 
C 249.777489 330.302913 250.601764 330.644339 251.46112 330.644339 
z
" clip-path="url(#p30c27cf515)" style="fill: #b64f4f; fill-opacity: 0.78; stroke: #ffffff; stroke-opacity: 0.78; stroke-width: 0.6"/>
    <path d="M 343.253328 330.644339 
C 344.112684 330.644339 344.936959 330.302913 345.544616 329.695257 
C 346.152272 329.0876 346.493698 328.263325 346.493698 327.403969 
C 346.493698 326.544612 346.152272 325.720338 345.544616 325.112681 
C 344.936959 324.505024 344.112684 324.163598 343.253328 324.163598 
C 342.393972 324.163598 341.569697 324.505024 340.96204 325.112681 
C 340.354383 325.720338 340.012958 326.544612 340.012958 327.403969 
C 340.012958 328.263325 340.354383 329.0876 340.96204 329.695257 
C 341.569697 330.302913 342.393972 330.644339 343.253328 330.644339 
z
" clip-path="url(#p30c27cf515)" style="fill: #b64f4f; fill-opacity: 0.78; stroke: #ffffff; stroke-opacity: 0.78; stroke-width: 0.6"/>
   </g>
   <g id="PathCollection_6">
    <path d="M 67.876705 43.544339 
C 68.736061 43.544339 69.560336 43.202913 70.167992 42.595257 
C 70.775649 41.9876 71.117075 41.163325 71.117075 40.303969 
C 71.117075 39.444612 70.775649 38.620338 70.167992 38.012681 
C 69.560336 37.405024 68.736061 37.063598 67.876705 37.063598 
C 67.017348 37.063598 66.193073 37.405024 65.585417 38.012681 
C 64.97776 38.620338 64.636334 39.444612 64.636334 40.303969 
C 64.636334 41.163325 64.97776 41.9876 65.585417 42.595257 
C 66.193073 43.202913 67.017348 43.544339 67.876705 43.544339 
z
" clip-path="url(#p30c27cf515)" style="fill: #6b7280; fill-opacity: 0.78; stroke: #ffffff; stroke-opacity: 0.78; stroke-width: 0.6"/>
    <path d="M 67.876705 330.644339 
C 68.736061 330.644339 69.560336 330.302913 70.167992 329.695257 
C 70.775649 329.0876 71.117075 328.263325 71.117075 327.403969 
C 71.117075 326.544612 70.775649 325.720338 70.167992 325.112681 
C 69.560336 324.505024 68.736061 324.163598 67.876705 324.163598 
C 67.017348 324.163598 66.193073 324.505024 65.585417 325.112681 
C 64.97776 325.720338 64.636334 326.544612 64.636334 327.403969 
C 64.636334 328.263325 64.97776 329.0876 65.585417 329.695257 
C 66.193073 330.302913 67.017348 330.644339 67.876705 330.644339 
z
" clip-path="url(#p30c27cf515)" style="fill: #6b7280; fill-opacity: 0.78; stroke: #ffffff; stroke-opacity: 0.78; stroke-width: 0.6"/>
    <path d="M 67.876705 43.544339 
C 68.736061 43.544339 69.560336 43.202913 70.167992 42.595257 
C 70.775649 41.9876 71.117075 41.163325 71.117075 40.303969 
C 71.117075 39.444612 70.775649 38.620338 70.167992 38.012681 
C 69.560336 37.405024 68.736061 37.063598 67.876705 37.063598 
C 67.017348 37.063598 66.193073 37.405024 65.585417 38.012681 
C 64.97776 38.620338 64.636334 39.444612 64.636334 40.303969 
C 64.636334 41.163325 64.97776 41.9876 65.585417 42.595257 
C 66.193073 43.202913 67.017348 43.544339 67.876705 43.544339 
z
" clip-path="url(#p30c27cf515)" style="fill: #6b7280; fill-opacity: 0.78; stroke: #ffffff; stroke-opacity: 0.78; stroke-width: 0.6"/>
    <path d="M 67.876705 330.644339 
C 68.736061 330.644339 69.560336 330.302913 70.167992 329.695257 
C 70.775649 329.0876 71.117075 328.263325 71.117075 327.403969 
C 71.117075 326.544612 70.775649 325.720338 70.167992 325.112681 
C 69.560336 324.505024 68.736061 324.163598 67.876705 324.163598 
C 67.017348 324.163598 66.193073 324.505024 65.585417 325.112681 
C 64.97776 325.720338 64.636334 326.544612 64.636334 327.403969 
C 64.636334 328.263325 64.97776 329.0876 65.585417 329.695257 
C 66.193073 330.302913 67.017348 330.644339 67.876705 330.644339 
z
" clip-path="url(#p30c27cf515)" style="fill: #6b7280; fill-opacity: 0.78; stroke: #ffffff; stroke-opacity: 0.78; stroke-width: 0.6"/>
    <path d="M 67.876705 330.644339 
C 68.736061 330.644339 69.560336 330.302913 70.167992 329.695257 
C 70.775649 329.0876 71.117075 328.263325 71.117075 327.403969 
C 71.117075 326.544612 70.775649 325.720338 70.167992 325.112681 
C 69.560336 324.505024 68.736061 324.163598 67.876705 324.163598 
C 67.017348 324.163598 66.193073 324.505024 65.585417 325.112681 
C 64.97776 325.720338 64.636334 326.544612 64.636334 327.403969 
C 64.636334 328.263325 64.97776 329.0876 65.585417 329.695257 
C 66.193073 330.302913 67.017348 330.644339 67.876705 330.644339 
z
" clip-path="url(#p30c27cf515)" style="fill: #6b7280; fill-opacity: 0.78; stroke: #ffffff; stroke-opacity: 0.78; stroke-width: 0.6"/>
    <path d="M 67.876705 330.644339 
C 68.736061 330.644339 69.560336 330.302913 70.167992 329.695257 
C 70.775649 329.0876 71.117075 328.263325 71.117075 327.403969 
C 71.117075 326.544612 70.775649 325.720338 70.167992 325.112681 
C 69.560336 324.505024 68.736061 324.163598 67.876705 324.163598 
C 67.017348 324.163598 66.193073 324.505024 65.585417 325.112681 
C 64.97776 325.720338 64.636334 326.544612 64.636334 327.403969 
C 64.636334 328.263325 64.97776 329.0876 65.585417 329.695257 
C 66.193073 330.302913 67.017348 330.644339 67.876705 330.644339 
z
" clip-path="url(#p30c27cf515)" style="fill: #6b7280; fill-opacity: 0.78; stroke: #ffffff; stroke-opacity: 0.78; stroke-width: 0.6"/>
    <path d="M 67.876705 330.644339 
C 68.736061 330.644339 69.560336 330.302913 70.167992 329.695257 
C 70.775649 329.0876 71.117075 328.263325 71.117075 327.403969 
C 71.117075 326.544612 70.775649 325.720338 70.167992 325.112681 
C 69.560336 324.505024 68.736061 324.163598 67.876705 324.163598 
C 67.017348 324.163598 66.193073 324.505024 65.585417 325.112681 
C 64.97776 325.720338 64.636334 326.544612 64.636334 327.403969 
C 64.636334 328.263325 64.97776 329.0876 65.585417 329.695257 
C 66.193073 330.302913 67.017348 330.644339 67.876705 330.644339 
z
" clip-path="url(#p30c27cf515)" style="fill: #6b7280; fill-opacity: 0.78; stroke: #ffffff; stroke-opacity: 0.78; stroke-width: 0.6"/>
   </g>
   <g id="matplotlib.axis_1">
    <g id="xtick_1">
     <g id="line2d_1">
      <defs>
       <path id="m7810dad395" d="M 0 0 
L 0 3.5 
" style="stroke: #000000; stroke-width: 0.8"/>
      </defs>
      <g>
       <use xlink:href="#m7810dad395" x="67.876705" y="344.629969" style="stroke: #000000; stroke-width: 0.8"/>
      </g>
     </g>
     <g id="text_1">
      <!-- 0 -->
      <g transform="translate(64.695455 359.228406) scale(0.1 -0.1)">
       <defs>
        <path id="DejaVuSans-30" d="M 2034 4250 
Q 1547 4250 1301 3770 
Q 1056 3291 1056 2328 
Q 1056 1369 1301 889 
Q 1547 409 2034 409 
Q 2525 409 2770 889 
Q 3016 1369 3016 2328 
Q 3016 3291 2770 3770 
Q 2525 4250 2034 4250 
z
M 2034 4750 
Q 2819 4750 3233 4129 
Q 3647 3509 3647 2328 
Q 3647 1150 3233 529 
Q 2819 -91 2034 -91 
Q 1250 -91 836 529 
Q 422 1150 422 2328 
Q 422 3509 836 4129 
Q 1250 4750 2034 4750 
z
" transform="scale(0.015625)"/>
       </defs>
       <use xlink:href="#DejaVuSans-30"/>
      </g>
     </g>
    </g>
    <g id="xtick_2">
     <g id="line2d_2">
      <g>
       <use xlink:href="#m7810dad395" x="159.668912" y="344.629969" style="stroke: #000000; stroke-width: 0.8"/>
      </g>
     </g>
     <g id="text_2">
      <!-- 1 -->
      <g transform="translate(156.487662 359.228406) scale(0.1 -0.1)">
       <defs>
        <path id="DejaVuSans-31" d="M 794 531 
L 1825 531 
L 1825 4091 
L 703 3866 
L 703 4441 
L 1819 4666 
L 2450 4666 
L 2450 531 
L 3481 531 
L 3481 0 
L 794 0 
L 794 531 
z
" transform="scale(0.015625)"/>
       </defs>
       <use xlink:href="#DejaVuSans-31"/>
      </g>
     </g>
    </g>
    <g id="xtick_3">
     <g id="line2d_3">
      <g>
       <use xlink:href="#m7810dad395" x="251.46112" y="344.629969" style="stroke: #000000; stroke-width: 0.8"/>
      </g>
     </g>
     <g id="text_3">
      <!-- 2 -->
      <g transform="translate(248.27987 359.228406) scale(0.1 -0.1)">
       <defs>
        <path id="DejaVuSans-32" d="M 1228 531 
L 3431 531 
L 3431 0 
L 469 0 
L 469 531 
Q 828 903 1448 1529 
Q 2069 2156 2228 2338 
Q 2531 2678 2651 2914 
Q 2772 3150 2772 3378 
Q 2772 3750 2511 3984 
Q 2250 4219 1831 4219 
Q 1534 4219 1204 4116 
Q 875 4013 500 3803 
L 500 4441 
Q 881 4594 1212 4672 
Q 1544 4750 1819 4750 
Q 2544 4750 2975 4387 
Q 3406 4025 3406 3419 
Q 3406 3131 3298 2873 
Q 3191 2616 2906 2266 
Q 2828 2175 2409 1742 
Q 1991 1309 1228 531 
z
" transform="scale(0.015625)"/>
       </defs>
       <use xlink:href="#DejaVuSans-32"/>
      </g>
     </g>
    </g>
    <g id="xtick_4">
     <g id="line2d_4">
      <g>
       <use xlink:href="#m7810dad395" x="343.253328" y="344.629969" style="stroke: #000000; stroke-width: 0.8"/>
      </g>
     </g>
     <g id="text_4">
      <!-- 3 -->
      <g transform="translate(340.072078 359.228406) scale(0.1 -0.1)">
       <defs>
        <path id="DejaVuSans-33" d="M 2597 2516 
Q 3050 2419 3304 2112 
Q 3559 1806 3559 1356 
Q 3559 666 3084 287 
Q 2609 -91 1734 -91 
Q 1441 -91 1130 -33 
Q 819 25 488 141 
L 488 750 
Q 750 597 1062 519 
Q 1375 441 1716 441 
Q 2309 441 2620 675 
Q 2931 909 2931 1356 
Q 2931 1769 2642 2001 
Q 2353 2234 1838 2234 
L 1294 2234 
L 1294 2753 
L 1863 2753 
Q 2328 2753 2575 2939 
Q 2822 3125 2822 3475 
Q 2822 3834 2567 4026 
Q 2313 4219 1838 4219 
Q 1578 4219 1281 4162 
Q 984 4106 628 3988 
L 628 4550 
Q 988 4650 1302 4700 
Q 1616 4750 1894 4750 
Q 2613 4750 3031 4423 
Q 3450 4097 3450 3541 
Q 3450 3153 3228 2886 
Q 3006 2619 2597 2516 
z
" transform="scale(0.015625)"/>
       </defs>
       <use xlink:href="#DejaVuSans-33"/>
      </g>
     </g>
    </g>
    <g id="xtick_5">
     <g id="line2d_5">
      <g>
       <use xlink:href="#m7810dad395" x="435.045536" y="344.629969" style="stroke: #000000; stroke-width: 0.8"/>
      </g>
     </g>
     <g id="text_5">
      <!-- 4 -->
      <g transform="translate(431.864286 359.228406) scale(0.1 -0.1)">
       <defs>
        <path id="DejaVuSans-34" d="M 2419 4116 
L 825 1625 
L 2419 1625 
L 2419 4116 
z
M 2253 4666 
L 3047 4666 
L 3047 1625 
L 3713 1625 
L 3713 1100 
L 3047 1100 
L 3047 0 
L 2419 0 
L 2419 1100 
L 313 1100 
L 313 1709 
L 2253 4666 
z
" transform="scale(0.015625)"/>
       </defs>
       <use xlink:href="#DejaVuSans-34"/>
      </g>
     </g>
    </g>
    <g id="xtick_6">
     <g id="line2d_6">
      <g>
       <use xlink:href="#m7810dad395" x="526.837744" y="344.629969" style="stroke: #000000; stroke-width: 0.8"/>
      </g>
     </g>
     <g id="text_6">
      <!-- 5 -->
      <g transform="translate(523.656494 359.228406) scale(0.1 -0.1)">
       <defs>
        <path id="DejaVuSans-35" d="M 691 4666 
L 3169 4666 
L 3169 4134 
L 1269 4134 
L 1269 2991 
Q 1406 3038 1543 3061 
Q 1681 3084 1819 3084 
Q 2600 3084 3056 2656 
Q 3513 2228 3513 1497 
Q 3513 744 3044 326 
Q 2575 -91 1722 -91 
Q 1428 -91 1123 -41 
Q 819 9 494 109 
L 494 744 
Q 775 591 1075 516 
Q 1375 441 1709 441 
Q 2250 441 2565 725 
Q 2881 1009 2881 1497 
Q 2881 1984 2565 2268 
Q 2250 2553 1709 2553 
Q 1456 2553 1204 2497 
Q 953 2441 691 2322 
L 691 4666 
z
" transform="scale(0.015625)"/>
       </defs>
       <use xlink:href="#DejaVuSans-35"/>
      </g>
     </g>
    </g>
    <g id="text_7">
     <!-- Constraint/workaround intensity (derived from artifacts) -->
     <g transform="translate(168.555469 372.906531) scale(0.1 -0.1)">
      <defs>
       <path id="DejaVuSans-43" d="M 4122 4306 
L 4122 3641 
Q 3803 3938 3442 4084 
Q 3081 4231 2675 4231 
Q 1875 4231 1450 3742 
Q 1025 3253 1025 2328 
Q 1025 1406 1450 917 
Q 1875 428 2675 428 
Q 3081 428 3442 575 
Q 3803 722 4122 1019 
L 4122 359 
Q 3791 134 3420 21 
Q 3050 -91 2638 -91 
Q 1578 -91 968 557 
Q 359 1206 359 2328 
Q 359 3453 968 4101 
Q 1578 4750 2638 4750 
Q 3056 4750 3426 4639 
Q 3797 4528 4122 4306 
z
" transform="scale(0.015625)"/>
       <path id="DejaVuSans-6f" d="M 1959 3097 
Q 1497 3097 1228 2736 
Q 959 2375 959 1747 
Q 959 1119 1226 758 
Q 1494 397 1959 397 
Q 2419 397 2687 759 
Q 2956 1122 2956 1747 
Q 2956 2369 2687 2733 
Q 2419 3097 1959 3097 
z
M 1959 3584 
Q 2709 3584 3137 3096 
Q 3566 2609 3566 1747 
Q 3566 888 3137 398 
Q 2709 -91 1959 -91 
Q 1206 -91 779 398 
Q 353 888 353 1747 
Q 353 2609 779 3096 
Q 1206 3584 1959 3584 
z
" transform="scale(0.015625)"/>
       <path id="DejaVuSans-6e" d="M 3513 2113 
L 3513 0 
L 2938 0 
L 2938 2094 
Q 2938 2591 2744 2837 
Q 2550 3084 2163 3084 
Q 1697 3084 1428 2787 
Q 1159 2491 1159 1978 
L 1159 0 
L 581 0 
L 581 3500 
L 1159 3500 
L 1159 2956 
Q 1366 3272 1645 3428 
Q 1925 3584 2291 3584 
Q 2894 3584 3203 3211 
Q 3513 2838 3513 2113 
z
" transform="scale(0.015625)"/>
       <path id="DejaVuSans-73" d="M 2834 3397 
L 2834 2853 
Q 2591 2978 2328 3040 
Q 2066 3103 1784 3103 
Q 1356 3103 1142 2972 
Q 928 2841 928 2578 
Q 928 2378 1081 2264 
Q 1234 2150 1697 2047 
L 1894 2003 
Q 2506 1872 2764 1633 
Q 3022 1394 3022 966 
Q 3022 478 2636 193 
Q 2250 -91 1575 -91 
Q 1294 -91 989 -36 
Q 684 19 347 128 
L 347 722 
Q 666 556 975 473 
Q 1284 391 1588 391 
Q 1994 391 2212 530 
Q 2431 669 2431 922 
Q 2431 1156 2273 1281 
Q 2116 1406 1581 1522 
L 1381 1569 
Q 847 1681 609 1914 
Q 372 2147 372 2553 
Q 372 3047 722 3315 
Q 1072 3584 1716 3584 
Q 2034 3584 2315 3537 
Q 2597 3491 2834 3397 
z
" transform="scale(0.015625)"/>
       <path id="DejaVuSans-74" d="M 1172 4494 
L 1172 3500 
L 2356 3500 
L 2356 3053 
L 1172 3053 
L 1172 1153 
Q 1172 725 1289 603 
Q 1406 481 1766 481 
L 2356 481 
L 2356 0 
L 1766 0 
Q 1100 0 847 248 
Q 594 497 594 1153 
L 594 3053 
L 172 3053 
L 172 3500 
L 594 3500 
L 594 4494 
L 1172 4494 
z
" transform="scale(0.015625)"/>
       <path id="DejaVuSans-72" d="M 2631 2963 
Q 2534 3019 2420 3045 
Q 2306 3072 2169 3072 
Q 1681 3072 1420 2755 
Q 1159 2438 1159 1844 
L 1159 0 
L 581 0 
L 581 3500 
L 1159 3500 
L 1159 2956 
Q 1341 3275 1631 3429 
Q 1922 3584 2338 3584 
Q 2397 3584 2469 3576 
Q 2541 3569 2628 3553 
L 2631 2963 
z
" transform="scale(0.015625)"/>
       <path id="DejaVuSans-61" d="M 2194 1759 
Q 1497 1759 1228 1600 
Q 959 1441 959 1056 
Q 959 750 1161 570 
Q 1363 391 1709 391 
Q 2188 391 2477 730 
Q 2766 1069 2766 1631 
L 2766 1759 
L 2194 1759 
z
M 3341 1997 
L 3341 0 
L 2766 0 
L 2766 531 
Q 2569 213 2275 61 
Q 1981 -91 1556 -91 
Q 1019 -91 701 211 
Q 384 513 384 1019 
Q 384 1609 779 1909 
Q 1175 2209 1959 2209 
L 2766 2209 
L 2766 2266 
Q 2766 2663 2505 2880 
Q 2244 3097 1772 3097 
Q 1472 3097 1187 3025 
Q 903 2953 641 2809 
L 641 3341 
Q 956 3463 1253 3523 
Q 1550 3584 1831 3584 
Q 2591 3584 2966 3190 
Q 3341 2797 3341 1997 
z
" transform="scale(0.015625)"/>
       <path id="DejaVuSans-69" d="M 603 3500 
L 1178 3500 
L 1178 0 
L 603 0 
L 603 3500 
z
M 603 4863 
L 1178 4863 
L 1178 4134 
L 603 4134 
L 603 4863 
z
" transform="scale(0.015625)"/>
       <path id="DejaVuSans-2f" d="M 1625 4666 
L 2156 4666 
L 531 -594 
L 0 -594 
L 1625 4666 
z
" transform="scale(0.015625)"/>
       <path id="DejaVuSans-77" d="M 269 3500 
L 844 3500 
L 1563 769 
L 2278 3500 
L 2956 3500 
L 3675 769 
L 4391 3500 
L 4966 3500 
L 4050 0 
L 3372 0 
L 2619 2869 
L 1863 0 
L 1184 0 
L 269 3500 
z
" transform="scale(0.015625)"/>
       <path id="DejaVuSans-6b" d="M 581 4863 
L 1159 4863 
L 1159 1991 
L 2875 3500 
L 3609 3500 
L 1753 1863 
L 3688 0 
L 2938 0 
L 1159 1709 
L 1159 0 
L 581 0 
L 581 4863 
z
" transform="scale(0.015625)"/>
       <path id="DejaVuSans-75" d="M 544 1381 
L 544 3500 
L 1119 3500 
L 1119 1403 
Q 1119 906 1312 657 
Q 1506 409 1894 409 
Q 2359 409 2629 706 
Q 2900 1003 2900 1516 
L 2900 3500 
L 3475 3500 
L 3475 0 
L 2900 0 
L 2900 538 
Q 2691 219 2414 64 
Q 2138 -91 1772 -91 
Q 1169 -91 856 284 
Q 544 659 544 1381 
z
M 1991 3584 
L 1991 3584 
z
" transform="scale(0.015625)"/>
       <path id="DejaVuSans-64" d="M 2906 2969 
L 2906 4863 
L 3481 4863 
L 3481 0 
L 2906 0 
L 2906 525 
Q 2725 213 2448 61 
Q 2172 -91 1784 -91 
Q 1150 -91 751 415 
Q 353 922 353 1747 
Q 353 2572 751 3078 
Q 1150 3584 1784 3584 
Q 2172 3584 2448 3432 
Q 2725 3281 2906 2969 
z
M 947 1747 
Q 947 1113 1208 752 
Q 1469 391 1925 391 
Q 2381 391 2643 752 
Q 2906 1113 2906 1747 
Q 2906 2381 2643 2742 
Q 2381 3103 1925 3103 
Q 1469 3103 1208 2742 
Q 947 2381 947 1747 
z
" transform="scale(0.015625)"/>
       <path id="DejaVuSans-20" transform="scale(0.015625)"/>
       <path id="DejaVuSans-65" d="M 3597 1894 
L 3597 1613 
L 953 1613 
Q 991 1019 1311 708 
Q 1631 397 2203 397 
Q 2534 397 2845 478 
Q 3156 559 3463 722 
L 3463 178 
Q 3153 47 2828 -22 
Q 2503 -91 2169 -91 
Q 1331 -91 842 396 
Q 353 884 353 1716 
Q 353 2575 817 3079 
Q 1281 3584 2069 3584 
Q 2775 3584 3186 3129 
Q 3597 2675 3597 1894 
z
M 3022 2063 
Q 3016 2534 2758 2815 
Q 2500 3097 2075 3097 
Q 1594 3097 1305 2825 
Q 1016 2553 972 2059 
L 3022 2063 
z
" transform="scale(0.015625)"/>
       <path id="DejaVuSans-79" d="M 2059 -325 
Q 1816 -950 1584 -1140 
Q 1353 -1331 966 -1331 
L 506 -1331 
L 506 -850 
L 844 -850 
Q 1081 -850 1212 -737 
Q 1344 -625 1503 -206 
L 1606 56 
L 191 3500 
L 800 3500 
L 1894 763 
L 2988 3500 
L 3597 3500 
L 2059 -325 
z
" transform="scale(0.015625)"/>
       <path id="DejaVuSans-28" d="M 1984 4856 
Q 1566 4138 1362 3434 
Q 1159 2731 1159 2009 
Q 1159 1288 1364 580 
Q 1569 -128 1984 -844 
L 1484 -844 
Q 1016 -109 783 600 
Q 550 1309 550 2009 
Q 550 2706 781 3412 
Q 1013 4119 1484 4856 
L 1984 4856 
z
" transform="scale(0.015625)"/>
       <path id="DejaVuSans-76" d="M 191 3500 
L 800 3500 
L 1894 563 
L 2988 3500 
L 3597 3500 
L 2284 0 
L 1503 0 
L 191 3500 
z
" transform="scale(0.015625)"/>
       <path id="DejaVuSans-66" d="M 2375 4863 
L 2375 4384 
L 1825 4384 
Q 1516 4384 1395 4259 
Q 1275 4134 1275 3809 
L 1275 3500 
L 2222 3500 
L 2222 3053 
L 1275 3053 
L 1275 0 
L 697 0 
L 697 3053 
L 147 3053 
L 147 3500 
L 697 3500 
L 697 3744 
Q 697 4328 969 4595 
Q 1241 4863 1831 4863 
L 2375 4863 
z
" transform="scale(0.015625)"/>
       <path id="DejaVuSans-6d" d="M 3328 2828 
Q 3544 3216 3844 3400 
Q 4144 3584 4550 3584 
Q 5097 3584 5394 3201 
Q 5691 2819 5691 2113 
L 5691 0 
L 5113 0 
L 5113 2094 
Q 5113 2597 4934 2840 
Q 4756 3084 4391 3084 
Q 3944 3084 3684 2787 
Q 3425 2491 3425 1978 
L 3425 0 
L 2847 0 
L 2847 2094 
Q 2847 2600 2669 2842 
Q 2491 3084 2119 3084 
Q 1678 3084 1418 2786 
Q 1159 2488 1159 1978 
L 1159 0 
L 581 0 
L 581 3500 
L 1159 3500 
L 1159 2956 
Q 1356 3278 1631 3431 
Q 1906 3584 2284 3584 
Q 2666 3584 2933 3390 
Q 3200 3197 3328 2828 
z
" transform="scale(0.015625)"/>
       <path id="DejaVuSans-63" d="M 3122 3366 
L 3122 2828 
Q 2878 2963 2633 3030 
Q 2388 3097 2138 3097 
Q 1578 3097 1268 2742 
Q 959 2388 959 1747 
Q 959 1106 1268 751 
Q 1578 397 2138 397 
Q 2388 397 2633 464 
Q 2878 531 3122 666 
L 3122 134 
Q 2881 22 2623 -34 
Q 2366 -91 2075 -91 
Q 1284 -91 818 406 
Q 353 903 353 1747 
Q 353 2603 823 3093 
Q 1294 3584 2113 3584 
Q 2378 3584 2631 3529 
Q 2884 3475 3122 3366 
z
" transform="scale(0.015625)"/>
       <path id="DejaVuSans-29" d="M 513 4856 
L 1013 4856 
Q 1481 4119 1714 3412 
Q 1947 2706 1947 2009 
Q 1947 1309 1714 600 
Q 1481 -109 1013 -844 
L 513 -844 
Q 928 -128 1133 580 
Q 1338 1288 1338 2009 
Q 1338 2731 1133 3434 
Q 928 4138 513 4856 
z
" transform="scale(0.015625)"/>
      </defs>
      <use xlink:href="#DejaVuSans-43"/>
      <use xlink:href="#DejaVuSans-6f" transform="translate(69.824219 0)"/>
      <use xlink:href="#DejaVuSans-6e" transform="translate(131.005859 0)"/>
      <use xlink:href="#DejaVuSans-73" transform="translate(194.384766 0)"/>
      <use xlink:href="#DejaVuSans-74" transform="translate(246.484375 0)"/>
      <use xlink:href="#DejaVuSans-72" transform="translate(285.693359 0)"/>
      <use xlink:href="#DejaVuSans-61" transform="translate(326.806641 0)"/>
      <use xlink:href="#DejaVuSans-69" transform="translate(388.085938 0)"/>
      <use xlink:href="#DejaVuSans-6e" transform="translate(415.869141 0)"/>
      <use xlink:href="#DejaVuSans-74" transform="translate(479.248047 0)"/>
      <use xlink:href="#DejaVuSans-2f" transform="translate(518.457031 0)"/>
      <use xlink:href="#DejaVuSans-77" transform="translate(552.148438 0)"/>
      <use xlink:href="#DejaVuSans-6f" transform="translate(633.935547 0)"/>
      <use xlink:href="#DejaVuSans-72" transform="translate(695.117188 0)"/>
      <use xlink:href="#DejaVuSans-6b" transform="translate(736.230469 0)"/>
      <use xlink:href="#DejaVuSans-61" transform="translate(792.390625 0)"/>
      <use xlink:href="#DejaVuSans-72" transform="translate(853.669922 0)"/>
      <use xlink:href="#DejaVuSans-6f" transform="translate(892.533203 0)"/>
      <use xlink:href="#DejaVuSans-75" transform="translate(953.714844 0)"/>
      <use xlink:href="#DejaVuSans-6e" transform="translate(1017.09375 0)"/>
      <use xlink:href="#DejaVuSans-64" transform="translate(1080.472656 0)"/>
      <use xlink:href="#DejaVuSans-20" transform="translate(1143.949219 0)"/>
      <use xlink:href="#DejaVuSans-69" transform="translate(1175.736328 0)"/>
      <use xlink:href="#DejaVuSans-6e" transform="translate(1203.519531 0)"/>
      <use xlink:href="#DejaVuSans-74" transform="translate(1266.898438 0)"/>
      <use xlink:href="#DejaVuSans-65" transform="translate(1306.107422 0)"/>
      <use xlink:href="#DejaVuSans-6e" transform="translate(1367.630859 0)"/>
      <use xlink:href="#DejaVuSans-73" transform="translate(1431.009766 0)"/>
      <use xlink:href="#DejaVuSans-69" transform="translate(1483.109375 0)"/>
      <use xlink:href="#DejaVuSans-74" transform="translate(1510.892578 0)"/>
      <use xlink:href="#DejaVuSans-79" transform="translate(1550.101562 0)"/>
      <use xlink:href="#DejaVuSans-20" transform="translate(1609.28125 0)"/>
      <use xlink:href="#DejaVuSans-28" transform="translate(1641.068359 0)"/>
      <use xlink:href="#DejaVuSans-64" transform="translate(1680.082031 0)"/>
      <use xlink:href="#DejaVuSans-65" transform="translate(1743.558594 0)"/>
      <use xlink:href="#DejaVuSans-72" transform="translate(1805.082031 0)"/>
      <use xlink:href="#DejaVuSans-69" transform="translate(1846.195312 0)"/>
      <use xlink:href="#DejaVuSans-76" transform="translate(1873.978516 0)"/>
      <use xlink:href="#DejaVuSans-65" transform="translate(1933.158203 0)"/>
      <use xlink:href="#DejaVuSans-64" transform="translate(1994.681641 0)"/>
      <use xlink:href="#DejaVuSans-20" transform="translate(2058.158203 0)"/>
      <use xlink:href="#DejaVuSans-66" transform="translate(2089.945312 0)"/>
      <use xlink:href="#DejaVuSans-72" transform="translate(2125.150391 0)"/>
      <use xlink:href="#DejaVuSans-6f" transform="translate(2164.013672 0)"/>
      <use xlink:href="#DejaVuSans-6d" transform="translate(2225.195312 0)"/>
      <use xlink:href="#DejaVuSans-20" transform="translate(2322.607422 0)"/>
      <use xlink:href="#DejaVuSans-61" transform="translate(2354.394531 0)"/>
      <use xlink:href="#DejaVuSans-72" transform="translate(2415.673828 0)"/>
      <use xlink:href="#DejaVuSans-74" transform="translate(2456.787109 0)"/>
      <use xlink:href="#DejaVuSans-69" transform="translate(2495.996094 0)"/>
      <use xlink:href="#DejaVuSans-66" transform="translate(2523.779297 0)"/>
      <use xlink:href="#DejaVuSans-61" transform="translate(2558.984375 0)"/>
      <use xlink:href="#DejaVuSans-63" transform="translate(2620.263672 0)"/>
      <use xlink:href="#DejaVuSans-74" transform="translate(2675.244141 0)"/>
      <use xlink:href="#DejaVuSans-73" transform="translate(2714.453125 0)"/>
      <use xlink:href="#DejaVuSans-29" transform="translate(2766.552734 0)"/>
     </g>
    </g>
   </g>
   <g id="matplotlib.axis_2">
    <g id="ytick_1">
     <g id="line2d_7">
      <defs>
       <path id="meac29bc185" d="M 0 0 
L -3.5 0 
" style="stroke: #000000; stroke-width: 0.8"/>
      </defs>
      <g>
       <use xlink:href="#meac29bc185" x="43.78125" y="327.403969" style="stroke: #000000; stroke-width: 0.8"/>
      </g>
     </g>
     <g id="text_8">
      <!-- 0.0 -->
      <g transform="translate(20.878125 331.203187) scale(0.1 -0.1)">
       <defs>
        <path id="DejaVuSans-2e" d="M 684 794 
L 1344 794 
L 1344 0 
L 684 0 
L 684 794 
z
" transform="scale(0.015625)"/>
       </defs>
       <use xlink:href="#DejaVuSans-30"/>
       <use xlink:href="#DejaVuSans-2e" transform="translate(63.623047 0)"/>
       <use xlink:href="#DejaVuSans-30" transform="translate(95.410156 0)"/>
      </g>
     </g>
    </g>
    <g id="ytick_2">
     <g id="line2d_8">
      <g>
       <use xlink:href="#meac29bc185" x="43.78125" y="269.983969" style="stroke: #000000; stroke-width: 0.8"/>
      </g>
     </g>
     <g id="text_9">
      <!-- 0.2 -->
      <g transform="translate(20.878125 273.783187) scale(0.1 -0.1)">
       <use xlink:href="#DejaVuSans-30"/>
       <use xlink:href="#DejaVuSans-2e" transform="translate(63.623047 0)"/>
       <use xlink:href="#DejaVuSans-32" transform="translate(95.410156 0)"/>
      </g>
     </g>
    </g>
    <g id="ytick_3">
     <g id="line2d_9">
      <g>
       <use xlink:href="#meac29bc185" x="43.78125" y="212.563969" style="stroke: #000000; stroke-width: 0.8"/>
      </g>
     </g>
     <g id="text_10">
      <!-- 0.4 -->
      <g transform="translate(20.878125 216.363187) scale(0.1 -0.1)">
       <use xlink:href="#DejaVuSans-30"/>
       <use xlink:href="#DejaVuSans-2e" transform="translate(63.623047 0)"/>
       <use xlink:href="#DejaVuSans-34" transform="translate(95.410156 0)"/>
      </g>
     </g>
    </g>
    <g id="ytick_4">
     <g id="line2d_10">
      <g>
       <use xlink:href="#meac29bc185" x="43.78125" y="155.143969" style="stroke: #000000; stroke-width: 0.8"/>
      </g>
     </g>
     <g id="text_11">
      <!-- 0.6 -->
      <g transform="translate(20.878125 158.943187) scale(0.1 -0.1)">
       <defs>
        <path id="DejaVuSans-36" d="M 2113 2584 
Q 1688 2584 1439 2293 
Q 1191 2003 1191 1497 
Q 1191 994 1439 701 
Q 1688 409 2113 409 
Q 2538 409 2786 701 
Q 3034 994 3034 1497 
Q 3034 2003 2786 2293 
Q 2538 2584 2113 2584 
z
M 3366 4563 
L 3366 3988 
Q 3128 4100 2886 4159 
Q 2644 4219 2406 4219 
Q 1781 4219 1451 3797 
Q 1122 3375 1075 2522 
Q 1259 2794 1537 2939 
Q 1816 3084 2150 3084 
Q 2853 3084 3261 2657 
Q 3669 2231 3669 1497 
Q 3669 778 3244 343 
Q 2819 -91 2113 -91 
Q 1303 -91 875 529 
Q 447 1150 447 2328 
Q 447 3434 972 4092 
Q 1497 4750 2381 4750 
Q 2619 4750 2861 4703 
Q 3103 4656 3366 4563 
z
" transform="scale(0.015625)"/>
       </defs>
       <use xlink:href="#DejaVuSans-30"/>
       <use xlink:href="#DejaVuSans-2e" transform="translate(63.623047 0)"/>
       <use xlink:href="#DejaVuSans-36" transform="translate(95.410156 0)"/>
      </g>
     </g>
    </g>
    <g id="ytick_5">
     <g id="line2d_11">
      <g>
       <use xlink:href="#meac29bc185" x="43.78125" y="97.723969" style="stroke: #000000; stroke-width: 0.8"/>
      </g>
     </g>
     <g id="text_12">
      <!-- 0.8 -->
      <g transform="translate(20.878125 101.523187) scale(0.1 -0.1)">
       <defs>
        <path id="DejaVuSans-38" d="M 2034 2216 
Q 1584 2216 1326 1975 
Q 1069 1734 1069 1313 
Q 1069 891 1326 650 
Q 1584 409 2034 409 
Q 2484 409 2743 651 
Q 3003 894 3003 1313 
Q 3003 1734 2745 1975 
Q 2488 2216 2034 2216 
z
M 1403 2484 
Q 997 2584 770 2862 
Q 544 3141 544 3541 
Q 544 4100 942 4425 
Q 1341 4750 2034 4750 
Q 2731 4750 3128 4425 
Q 3525 4100 3525 3541 
Q 3525 3141 3298 2862 
Q 3072 2584 2669 2484 
Q 3125 2378 3379 2068 
Q 3634 1759 3634 1313 
Q 3634 634 3220 271 
Q 2806 -91 2034 -91 
Q 1263 -91 848 271 
Q 434 634 434 1313 
Q 434 1759 690 2068 
Q 947 2378 1403 2484 
z
M 1172 3481 
Q 1172 3119 1398 2916 
Q 1625 2713 2034 2713 
Q 2441 2713 2670 2916 
Q 2900 3119 2900 3481 
Q 2900 3844 2670 4047 
Q 2441 4250 2034 4250 
Q 1625 4250 1398 4047 
Q 1172 3844 1172 3481 
z
" transform="scale(0.015625)"/>
       </defs>
       <use xlink:href="#DejaVuSans-30"/>
       <use xlink:href="#DejaVuSans-2e" transform="translate(63.623047 0)"/>
       <use xlink:href="#DejaVuSans-38" transform="translate(95.410156 0)"/>
      </g>
     </g>
    </g>
    <g id="ytick_6">
     <g id="line2d_12">
      <g>
       <use xlink:href="#meac29bc185" x="43.78125" y="40.303969" style="stroke: #000000; stroke-width: 0.8"/>
      </g>
     </g>
     <g id="text_13">
      <!-- 1.0 -->
      <g transform="translate(20.878125 44.103187) scale(0.1 -0.1)">
       <use xlink:href="#DejaVuSans-31"/>
       <use xlink:href="#DejaVuSans-2e" transform="translate(63.623047 0)"/>
       <use xlink:href="#DejaVuSans-30" transform="translate(95.410156 0)"/>
      </g>
     </g>
    </g>
    <g id="text_14">
     <!-- Outcome score -->
     <g transform="translate(14.798438 221.696156) rotate(-90) scale(0.1 -0.1)">
      <defs>
       <path id="DejaVuSans-4f" d="M 2522 4238 
Q 1834 4238 1429 3725 
Q 1025 3213 1025 2328 
Q 1025 1447 1429 934 
Q 1834 422 2522 422 
Q 3209 422 3611 934 
Q 4013 1447 4013 2328 
Q 4013 3213 3611 3725 
Q 3209 4238 2522 4238 
z
M 2522 4750 
Q 3503 4750 4090 4092 
Q 4678 3434 4678 2328 
Q 4678 1225 4090 567 
Q 3503 -91 2522 -91 
Q 1538 -91 948 565 
Q 359 1222 359 2328 
Q 359 3434 948 4092 
Q 1538 4750 2522 4750 
z
" transform="scale(0.015625)"/>
      </defs>
      <use xlink:href="#DejaVuSans-4f"/>
      <use xlink:href="#DejaVuSans-75" transform="translate(78.710938 0)"/>
      <use xlink:href="#DejaVuSans-74" transform="translate(142.089844 0)"/>
      <use xlink:href="#DejaVuSans-63" transform="translate(181.298828 0)"/>
      <use xlink:href="#DejaVuSans-6f" transform="translate(236.279297 0)"/>
      <use xlink:href="#DejaVuSans-6d" transform="translate(297.460938 0)"/>
      <use xlink:href="#DejaVuSans-65" transform="translate(394.873047 0)"/>
      <use xlink:href="#DejaVuSans-20" transform="translate(456.396484 0)"/>
      <use xlink:href="#DejaVuSans-73" transform="translate(488.183594 0)"/>
      <use xlink:href="#DejaVuSans-63" transform="translate(540.283203 0)"/>
      <use xlink:href="#DejaVuSans-6f" transform="translate(595.263672 0)"/>
      <use xlink:href="#DejaVuSans-72" transform="translate(656.445312 0)"/>
      <use xlink:href="#DejaVuSans-65" transform="translate(695.308594 0)"/>
     </g>
    </g>
   </g>
   <g id="patch_3">
    <path d="M 43.78125 344.629969 
L 43.78125 23.077969 
" style="fill: none; stroke: #4b5563; stroke-width: 0.8; stroke-linejoin: miter; stroke-linecap: square"/>
   </g>
   <g id="patch_4">
    <path d="M 573.88125 344.629969 
L 573.88125 23.077969 
" style="fill: none; stroke: #4b5563; stroke-width: 0.8; stroke-linejoin: miter; stroke-linecap: square"/>
   </g>
   <g id="patch_5">
    <path d="M 43.78125 344.629969 
L 573.88125 344.629969 
" style="fill: none; stroke: #4b5563; stroke-width: 0.8; stroke-linejoin: miter; stroke-linecap: square"/>
   </g>
   <g id="patch_6">
    <path d="M 43.78125 23.077969 
L 573.88125 23.077969 
" style="fill: none; stroke: #4b5563; stroke-width: 0.8; stroke-linejoin: miter; stroke-linecap: square"/>
   </g>
   <g id="text_15">
    <!-- Outcome score vs. evidence that Galaxy constrained the route -->
    <g transform="translate(104.554531 17.077969) scale(0.13 -0.13)">
     <defs>
      <path id="DejaVuSans-68" d="M 3513 2113 
L 3513 0 
L 2938 0 
L 2938 2094 
Q 2938 2591 2744 2837 
Q 2550 3084 2163 3084 
Q 1697 3084 1428 2787 
Q 1159 2491 1159 1978 
L 1159 0 
L 581 0 
L 581 4863 
L 1159 4863 
L 1159 2956 
Q 1366 3272 1645 3428 
Q 1925 3584 2291 3584 
Q 2894 3584 3203 3211 
Q 3513 2838 3513 2113 
z
" transform="scale(0.015625)"/>
      <path id="DejaVuSans-47" d="M 3809 666 
L 3809 1919 
L 2778 1919 
L 2778 2438 
L 4434 2438 
L 4434 434 
Q 4069 175 3628 42 
Q 3188 -91 2688 -91 
Q 1594 -91 976 548 
Q 359 1188 359 2328 
Q 359 3472 976 4111 
Q 1594 4750 2688 4750 
Q 3144 4750 3555 4637 
Q 3966 4525 4313 4306 
L 4313 3634 
Q 3963 3931 3569 4081 
Q 3175 4231 2741 4231 
Q 1884 4231 1454 3753 
Q 1025 3275 1025 2328 
Q 1025 1384 1454 906 
Q 1884 428 2741 428 
Q 3075 428 3337 486 
Q 3600 544 3809 666 
z
" transform="scale(0.015625)"/>
      <path id="DejaVuSans-6c" d="M 603 4863 
L 1178 4863 
L 1178 0 
L 603 0 
L 603 4863 
z
" transform="scale(0.015625)"/>
      <path id="DejaVuSans-78" d="M 3513 3500 
L 2247 1797 
L 3578 0 
L 2900 0 
L 1881 1375 
L 863 0 
L 184 0 
L 1544 1831 
L 300 3500 
L 978 3500 
L 1906 2253 
L 2834 3500 
L 3513 3500 
z
" transform="scale(0.015625)"/>
     </defs>
     <use xlink:href="#DejaVuSans-4f"/>
     <use xlink:href="#DejaVuSans-75" transform="translate(78.710938 0)"/>
     <use xlink:href="#DejaVuSans-74" transform="translate(142.089844 0)"/>
     <use xlink:href="#DejaVuSans-63" transform="translate(181.298828 0)"/>
     <use xlink:href="#DejaVuSans-6f" transform="translate(236.279297 0)"/>
     <use xlink:href="#DejaVuSans-6d" transform="translate(297.460938 0)"/>
     <use xlink:href="#DejaVuSans-65" transform="translate(394.873047 0)"/>
     <use xlink:href="#DejaVuSans-20" transform="translate(456.396484 0)"/>
     <use xlink:href="#DejaVuSans-73" transform="translate(488.183594 0)"/>
     <use xlink:href="#DejaVuSans-63" transform="translate(540.283203 0)"/>
     <use xlink:href="#DejaVuSans-6f" transform="translate(595.263672 0)"/>
     <use xlink:href="#DejaVuSans-72" transform="translate(656.445312 0)"/>
     <use xlink:href="#DejaVuSans-65" transform="translate(695.308594 0)"/>
     <use xlink:href="#DejaVuSans-20" transform="translate(756.832031 0)"/>
     <use xlink:href="#DejaVuSans-76" transform="translate(788.619141 0)"/>
     <use xlink:href="#DejaVuSans-73" transform="translate(847.798828 0)"/>
     <use xlink:href="#DejaVuSans-2e" transform="translate(899.898438 0)"/>
     <use xlink:href="#DejaVuSans-20" transform="translate(931.685547 0)"/>
     <use xlink:href="#DejaVuSans-65" transform="translate(963.472656 0)"/>
     <use xlink:href="#DejaVuSans-76" transform="translate(1024.996094 0)"/>
     <use xlink:href="#DejaVuSans-69" transform="translate(1084.175781 0)"/>
     <use xlink:href="#DejaVuSans-64" transform="translate(1111.958984 0)"/>
     <use xlink:href="#DejaVuSans-65" transform="translate(1175.435547 0)"/>
     <use xlink:href="#DejaVuSans-6e" transform="translate(1236.958984 0)"/>
     <use xlink:href="#DejaVuSans-63" transform="translate(1300.337891 0)"/>
     <use xlink:href="#DejaVuSans-65" transform="translate(1355.318359 0)"/>
     <use xlink:href="#DejaVuSans-20" transform="translate(1416.841797 0)"/>
     <use xlink:href="#DejaVuSans-74" transform="translate(1448.628906 0)"/>
     <use xlink:href="#DejaVuSans-68" transform="translate(1487.837891 0)"/>
     <use xlink:href="#DejaVuSans-61" transform="translate(1551.216797 0)"/>
     <use xlink:href="#DejaVuSans-74" transform="translate(1612.496094 0)"/>
     <use xlink:href="#DejaVuSans-20" transform="translate(1651.705078 0)"/>
     <use xlink:href="#DejaVuSans-47" transform="translate(1683.492188 0)"/>
     <use xlink:href="#DejaVuSans-61" transform="translate(1760.982422 0)"/>
     <use xlink:href="#DejaVuSans-6c" transform="translate(1822.261719 0)"/>
     <use xlink:href="#DejaVuSans-61" transform="translate(1850.044922 0)"/>
     <use xlink:href="#DejaVuSans-78" transform="translate(1911.324219 0)"/>
     <use xlink:href="#DejaVuSans-79" transform="translate(1970.503906 0)"/>
     <use xlink:href="#DejaVuSans-20" transform="translate(2029.683594 0)"/>
     <use xlink:href="#DejaVuSans-63" transform="translate(2061.470703 0)"/>
     <use xlink:href="#DejaVuSans-6f" transform="translate(2116.451172 0)"/>
     <use xlink:href="#DejaVuSans-6e" transform="translate(2177.632812 0)"/>
     <use xlink:href="#DejaVuSans-73" transform="translate(2241.011719 0)"/>
     <use xlink:href="#DejaVuSans-74" transform="translate(2293.111328 0)"/>
     <use xlink:href="#DejaVuSans-72" transform="translate(2332.320312 0)"/>
     <use xlink:href="#DejaVuSans-61" transform="translate(2373.433594 0)"/>
     <use xlink:href="#DejaVuSans-69" transform="translate(2434.712891 0)"/>
     <use xlink:href="#DejaVuSans-6e" transform="translate(2462.496094 0)"/>
     <use xlink:href="#DejaVuSans-65" transform="translate(2525.875 0)"/>
     <use xlink:href="#DejaVuSans-64" transform="translate(2587.398438 0)"/>
     <use xlink:href="#DejaVuSans-20" transform="translate(2650.875 0)"/>
     <use xlink:href="#DejaVuSans-74" transform="translate(2682.662109 0)"/>
     <use xlink:href="#DejaVuSans-68" transform="translate(2721.871094 0)"/>
     <use xlink:href="#DejaVuSans-65" transform="translate(2785.25 0)"/>
     <use xlink:href="#DejaVuSans-20" transform="translate(2846.773438 0)"/>
     <use xlink:href="#DejaVuSans-72" transform="translate(2878.560547 0)"/>
     <use xlink:href="#DejaVuSans-6f" transform="translate(2917.423828 0)"/>
     <use xlink:href="#DejaVuSans-75" transform="translate(2978.605469 0)"/>
     <use xlink:href="#DejaVuSans-74" transform="translate(3041.984375 0)"/>
     <use xlink:href="#DejaVuSans-65" transform="translate(3081.193359 0)"/>
    </g>
   </g>
   <g id="legend_1">
    <g id="PathCollection_7">
     <defs>
      <path id="mb1dce46382" d="M 0 4.242641 
C 1.125161 4.242641 2.204391 3.795609 3 3 
C 3.795609 2.204391 4.242641 1.125161 4.242641 0 
C 4.242641 -1.125161 3.795609 -2.204391 3 -3 
C 2.204391 -3.795609 1.125161 -4.242641 0 -4.242641 
C -1.125161 -4.242641 -2.204391 -3.795609 -3 -3 
C -3.795609 -2.204391 -4.242641 -1.125161 -4.242641 0 
C -4.242641 1.125161 -3.795609 2.204391 -3 3 
C -2.204391 3.795609 -1.125161 4.242641 0 4.242641 
z
" style="stroke: #ffffff; stroke-opacity: 0.78; stroke-width: 0.6"/>
     </defs>
     <g>
      <use xlink:href="#mb1dce46382" x="603.48325" y="147.293031" style="fill: #5c7cfa; fill-opacity: 0.78; stroke: #ffffff; stroke-opacity: 0.78; stroke-width: 0.6"/>
     </g>
    </g>
    <g id="text_16">
     <!-- Galaxy friction recovered -->
     <g transform="translate(621.48325 149.918031) scale(0.1 -0.1)">
      <use xlink:href="#DejaVuSans-47"/>
      <use xlink:href="#DejaVuSans-61" transform="translate(77.490234 0)"/>
      <use xlink:href="#DejaVuSans-6c" transform="translate(138.769531 0)"/>
      <use xlink:href="#DejaVuSans-61" transform="translate(166.552734 0)"/>
      <use xlink:href="#DejaVuSans-78" transform="translate(227.832031 0)"/>
      <use xlink:href="#DejaVuSans-79" transform="translate(287.011719 0)"/>
      <use xlink:href="#DejaVuSans-20" transform="translate(346.191406 0)"/>
      <use xlink:href="#DejaVuSans-66" transform="translate(377.978516 0)"/>
      <use xlink:href="#DejaVuSans-72" transform="translate(413.183594 0)"/>
      <use xlink:href="#DejaVuSans-69" transform="translate(454.296875 0)"/>
      <use xlink:href="#DejaVuSans-63" transform="translate(482.080078 0)"/>
      <use xlink:href="#DejaVuSans-74" transform="translate(537.060547 0)"/>
      <use xlink:href="#DejaVuSans-69" transform="translate(576.269531 0)"/>
      <use xlink:href="#DejaVuSans-6f" transform="translate(604.052734 0)"/>
      <use xlink:href="#DejaVuSans-6e" transform="translate(665.234375 0)"/>
      <use xlink:href="#DejaVuSans-20" transform="translate(728.613281 0)"/>
      <use xlink:href="#DejaVuSans-72" transform="translate(760.400391 0)"/>
      <use xlink:href="#DejaVuSans-65" transform="translate(799.263672 0)"/>
      <use xlink:href="#DejaVuSans-63" transform="translate(860.787109 0)"/>
      <use xlink:href="#DejaVuSans-6f" transform="translate(915.767578 0)"/>
      <use xlink:href="#DejaVuSans-76" transform="translate(976.949219 0)"/>
      <use xlink:href="#DejaVuSans-65" transform="translate(1036.128906 0)"/>
      <use xlink:href="#DejaVuSans-72" transform="translate(1097.652344 0)"/>
      <use xlink:href="#DejaVuSans-65" transform="translate(1136.515625 0)"/>
      <use xlink:href="#DejaVuSans-64" transform="translate(1198.039062 0)"/>
     </g>
    </g>
    <g id="PathCollection_8">
     <g>
      <use xlink:href="#mffcda3c4d0" x="603.48325" y="161.971156" style="fill: #c77d20; fill-opacity: 0.78; stroke: #ffffff; stroke-opacity: 0.78; stroke-width: 0.6"/>
     </g>
    </g>
    <g id="text_17">
     <!-- Galaxy friction, final failure -->
     <g transform="translate(621.48325 164.596156) scale(0.1 -0.1)">
      <defs>
       <path id="DejaVuSans-2c" d="M 750 794 
L 1409 794 
L 1409 256 
L 897 -744 
L 494 -744 
L 750 256 
L 750 794 
z
" transform="scale(0.015625)"/>
      </defs>
      <use xlink:href="#DejaVuSans-47"/>
      <use xlink:href="#DejaVuSans-61" transform="translate(77.490234 0)"/>
      <use xlink:href="#DejaVuSans-6c" transform="translate(138.769531 0)"/>
      <use xlink:href="#DejaVuSans-61" transform="translate(166.552734 0)"/>
      <use xlink:href="#DejaVuSans-78" transform="translate(227.832031 0)"/>
      <use xlink:href="#DejaVuSans-79" transform="translate(287.011719 0)"/>
      <use xlink:href="#DejaVuSans-20" transform="translate(346.191406 0)"/>
      <use xlink:href="#DejaVuSans-66" transform="translate(377.978516 0)"/>
      <use xlink:href="#DejaVuSans-72" transform="translate(413.183594 0)"/>
      <use xlink:href="#DejaVuSans-69" transform="translate(454.296875 0)"/>
      <use xlink:href="#DejaVuSans-63" transform="translate(482.080078 0)"/>
      <use xlink:href="#DejaVuSans-74" transform="translate(537.060547 0)"/>
      <use xlink:href="#DejaVuSans-69" transform="translate(576.269531 0)"/>
      <use xlink:href="#DejaVuSans-6f" transform="translate(604.052734 0)"/>
      <use xlink:href="#DejaVuSans-6e" transform="translate(665.234375 0)"/>
      <use xlink:href="#DejaVuSans-2c" transform="translate(728.613281 0)"/>
      <use xlink:href="#DejaVuSans-20" transform="translate(760.400391 0)"/>
      <use xlink:href="#DejaVuSans-66" transform="translate(792.1875 0)"/>
      <use xlink:href="#DejaVuSans-69" transform="translate(827.392578 0)"/>
      <use xlink:href="#DejaVuSans-6e" transform="translate(855.175781 0)"/>
      <use xlink:href="#DejaVuSans-61" transform="translate(918.554688 0)"/>
      <use xlink:href="#DejaVuSans-6c" transform="translate(979.833984 0)"/>
      <use xlink:href="#DejaVuSans-20" transform="translate(1007.617188 0)"/>
      <use xlink:href="#DejaVuSans-66" transform="translate(1039.404297 0)"/>
      <use xlink:href="#DejaVuSans-61" transform="translate(1074.609375 0)"/>
      <use xlink:href="#DejaVuSans-69" transform="translate(1135.888672 0)"/>
      <use xlink:href="#DejaVuSans-6c" transform="translate(1163.671875 0)"/>
      <use xlink:href="#DejaVuSans-75" transform="translate(1191.455078 0)"/>
      <use xlink:href="#DejaVuSans-72" transform="translate(1254.833984 0)"/>
      <use xlink:href="#DejaVuSans-65" transform="translate(1293.697266 0)"/>
     </g>
    </g>
    <g id="PathCollection_9">
     <defs>
      <path id="m84fa213c57" d="M 0 4.242641 
C 1.125161 4.242641 2.204391 3.795609 3 3 
C 3.795609 2.204391 4.242641 1.125161 4.242641 0 
C 4.242641 -1.125161 3.795609 -2.204391 3 -3 
C 2.204391 -3.795609 1.125161 -4.242641 0 -4.242641 
C -1.125161 -4.242641 -2.204391 -3.795609 -3 -3 
C -3.795609 -2.204391 -4.242641 -1.125161 -4.242641 0 
C -4.242641 1.125161 -3.795609 2.204391 -3 3 
C -2.204391 3.795609 -1.125161 4.242641 0 4.242641 
z
" style="stroke: #ffffff; stroke-opacity: 0.78; stroke-width: 0.6"/>
     </defs>
     <g>
      <use xlink:href="#m84fa213c57" x="603.48325" y="176.649281" style="fill: #7c3aed; fill-opacity: 0.78; stroke: #ffffff; stroke-opacity: 0.78; stroke-width: 0.6"/>
     </g>
    </g>
    <g id="text_18">
     <!-- Galaxy-blocked failure -->
     <g transform="translate(621.48325 179.274281) scale(0.1 -0.1)">
      <defs>
       <path id="DejaVuSans-2d" d="M 313 2009 
L 1997 2009 
L 1997 1497 
L 313 1497 
L 313 2009 
z
" transform="scale(0.015625)"/>
       <path id="DejaVuSans-62" d="M 3116 1747 
Q 3116 2381 2855 2742 
Q 2594 3103 2138 3103 
Q 1681 3103 1420 2742 
Q 1159 2381 1159 1747 
Q 1159 1113 1420 752 
Q 1681 391 2138 391 
Q 2594 391 2855 752 
Q 3116 1113 3116 1747 
z
M 1159 2969 
Q 1341 3281 1617 3432 
Q 1894 3584 2278 3584 
Q 2916 3584 3314 3078 
Q 3713 2572 3713 1747 
Q 3713 922 3314 415 
Q 2916 -91 2278 -91 
Q 1894 -91 1617 61 
Q 1341 213 1159 525 
L 1159 0 
L 581 0 
L 581 4863 
L 1159 4863 
L 1159 2969 
z
" transform="scale(0.015625)"/>
      </defs>
      <use xlink:href="#DejaVuSans-47"/>
      <use xlink:href="#DejaVuSans-61" transform="translate(77.490234 0)"/>
      <use xlink:href="#DejaVuSans-6c" transform="translate(138.769531 0)"/>
      <use xlink:href="#DejaVuSans-61" transform="translate(166.552734 0)"/>
      <use xlink:href="#DejaVuSans-78" transform="translate(227.832031 0)"/>
      <use xlink:href="#DejaVuSans-79" transform="translate(287.011719 0)"/>
      <use xlink:href="#DejaVuSans-2d" transform="translate(344.441406 0)"/>
      <use xlink:href="#DejaVuSans-62" transform="translate(380.525391 0)"/>
      <use xlink:href="#DejaVuSans-6c" transform="translate(444.001953 0)"/>
      <use xlink:href="#DejaVuSans-6f" transform="translate(471.785156 0)"/>
      <use xlink:href="#DejaVuSans-63" transform="translate(532.966797 0)"/>
      <use xlink:href="#DejaVuSans-6b" transform="translate(587.947266 0)"/>
      <use xlink:href="#DejaVuSans-65" transform="translate(642.232422 0)"/>
      <use xlink:href="#DejaVuSans-64" transform="translate(703.755859 0)"/>
      <use xlink:href="#DejaVuSans-20" transform="translate(767.232422 0)"/>
      <use xlink:href="#DejaVuSans-66" transform="translate(799.019531 0)"/>
      <use xlink:href="#DejaVuSans-61" transform="translate(834.224609 0)"/>
      <use xlink:href="#DejaVuSans-69" transform="translate(895.503906 0)"/>
      <use xlink:href="#DejaVuSans-6c" transform="translate(923.287109 0)"/>
      <use xlink:href="#DejaVuSans-75" transform="translate(951.070312 0)"/>
      <use xlink:href="#DejaVuSans-72" transform="translate(1014.449219 0)"/>
      <use xlink:href="#DejaVuSans-65" transform="translate(1053.3125 0)"/>
     </g>
    </g>
    <g id="PathCollection_10">
     <defs>
      <path id="ma361515e80" d="M 0 3.24037 
C 0.859356 3.24037 1.683631 2.898944 2.291288 2.291288 
C 2.898944 1.683631 3.24037 0.859356 3.24037 0 
C 3.24037 -0.859356 2.898944 -1.683631 2.291288 -2.291288 
C 1.683631 -2.898944 0.859356 -3.24037 0 -3.24037 
C -0.859356 -3.24037 -1.683631 -2.898944 -2.291288 -2.291288 
C -2.898944 -1.683631 -3.24037 -0.859356 -3.24037 0 
C -3.24037 0.859356 -2.898944 1.683631 -2.291288 2.291288 
C -1.683631 2.898944 -0.859356 3.24037 0 3.24037 
z
" style="stroke: #ffffff; stroke-opacity: 0.78; stroke-width: 0.6"/>
     </defs>
     <g>
      <use xlink:href="#ma361515e80" x="603.48325" y="191.327406" style="fill: #2f7d62; fill-opacity: 0.78; stroke: #ffffff; stroke-opacity: 0.78; stroke-width: 0.6"/>
     </g>
    </g>
    <g id="text_19">
     <!-- Galaxy-limited, solved via workaround -->
     <g transform="translate(621.48325 193.952406) scale(0.1 -0.1)">
      <use xlink:href="#DejaVuSans-47"/>
      <use xlink:href="#DejaVuSans-61" transform="translate(77.490234 0)"/>
      <use xlink:href="#DejaVuSans-6c" transform="translate(138.769531 0)"/>
      <use xlink:href="#DejaVuSans-61" transform="translate(166.552734 0)"/>
      <use xlink:href="#DejaVuSans-78" transform="translate(227.832031 0)"/>
      <use xlink:href="#DejaVuSans-79" transform="translate(287.011719 0)"/>
      <use xlink:href="#DejaVuSans-2d" transform="translate(344.441406 0)"/>
      <use xlink:href="#DejaVuSans-6c" transform="translate(380.525391 0)"/>
      <use xlink:href="#DejaVuSans-69" transform="translate(408.308594 0)"/>
      <use xlink:href="#DejaVuSans-6d" transform="translate(436.091797 0)"/>
      <use xlink:href="#DejaVuSans-69" transform="translate(533.503906 0)"/>
      <use xlink:href="#DejaVuSans-74" transform="translate(561.287109 0)"/>
      <use xlink:href="#DejaVuSans-65" transform="translate(600.496094 0)"/>
      <use xlink:href="#DejaVuSans-64" transform="translate(662.019531 0)"/>
      <use xlink:href="#DejaVuSans-2c" transform="translate(725.496094 0)"/>
      <use xlink:href="#DejaVuSans-20" transform="translate(757.283203 0)"/>
      <use xlink:href="#DejaVuSans-73" transform="translate(789.070312 0)"/>
      <use xlink:href="#DejaVuSans-6f" transform="translate(841.169922 0)"/>
      <use xlink:href="#DejaVuSans-6c" transform="translate(902.351562 0)"/>
      <use xlink:href="#DejaVuSans-76" transform="translate(930.134766 0)"/>
      <use xlink:href="#DejaVuSans-65" transform="translate(989.314453 0)"/>
      <use xlink:href="#DejaVuSans-64" transform="translate(1050.837891 0)"/>
      <use xlink:href="#DejaVuSans-20" transform="translate(1114.314453 0)"/>
      <use xlink:href="#DejaVuSans-76" transform="translate(1146.101562 0)"/>
      <use xlink:href="#DejaVuSans-69" transform="translate(1205.28125 0)"/>
      <use xlink:href="#DejaVuSans-61" transform="translate(1233.064453 0)"/>
      <use xlink:href="#DejaVuSans-20" transform="translate(1294.34375 0)"/>
      <use xlink:href="#DejaVuSans-77" transform="translate(1326.130859 0)"/>
      <use xlink:href="#DejaVuSans-6f" transform="translate(1407.917969 0)"/>
      <use xlink:href="#DejaVuSans-72" transform="translate(1469.099609 0)"/>
      <use xlink:href="#DejaVuSans-6b" transform="translate(1510.212891 0)"/>
      <use xlink:href="#DejaVuSans-61" transform="translate(1566.373047 0)"/>
      <use xlink:href="#DejaVuSans-72" transform="translate(1627.652344 0)"/>
      <use xlink:href="#DejaVuSans-6f" transform="translate(1666.515625 0)"/>
      <use xlink:href="#DejaVuSans-75" transform="translate(1727.697266 0)"/>
      <use xlink:href="#DejaVuSans-6e" transform="translate(1791.076172 0)"/>
      <use xlink:href="#DejaVuSans-64" transform="translate(1854.455078 0)"/>
     </g>
    </g>
    <g id="PathCollection_11">
     <defs>
      <path id="mb41fb3c8d2" d="M 0 3.427827 
C 0.90907 3.427827 1.78103 3.06665 2.42384 2.42384 
C 3.06665 1.78103 3.427827 0.90907 3.427827 0 
C 3.427827 -0.90907 3.06665 -1.78103 2.42384 -2.42384 
C 1.78103 -3.06665 0.90907 -3.427827 0 -3.427827 
C -0.90907 -3.427827 -1.78103 -3.06665 -2.42384 -2.42384 
C -3.06665 -1.78103 -3.427827 -0.90907 -3.427827 0 
C -3.427827 0.90907 -3.06665 1.78103 -2.42384 2.42384 
C -1.78103 3.06665 -0.90907 3.427827 0 3.427827 
z
" style="stroke: #ffffff; stroke-opacity: 0.78; stroke-width: 0.6"/>
     </defs>
     <g>
      <use xlink:href="#mb41fb3c8d2" x="603.48325" y="206.005531" style="fill: #b64f4f; fill-opacity: 0.78; stroke: #ffffff; stroke-opacity: 0.78; stroke-width: 0.6"/>
     </g>
    </g>
    <g id="text_20">
     <!-- Galaxy-limited, workaround insufficient -->
     <g transform="translate(621.48325 208.630531) scale(0.1 -0.1)">
      <use xlink:href="#DejaVuSans-47"/>
      <use xlink:href="#DejaVuSans-61" transform="translate(77.490234 0)"/>
      <use xlink:href="#DejaVuSans-6c" transform="translate(138.769531 0)"/>
      <use xlink:href="#DejaVuSans-61" transform="translate(166.552734 0)"/>
      <use xlink:href="#DejaVuSans-78" transform="translate(227.832031 0)"/>
      <use xlink:href="#DejaVuSans-79" transform="translate(287.011719 0)"/>
      <use xlink:href="#DejaVuSans-2d" transform="translate(344.441406 0)"/>
      <use xlink:href="#DejaVuSans-6c" transform="translate(380.525391 0)"/>
      <use xlink:href="#DejaVuSans-69" transform="translate(408.308594 0)"/>
      <use xlink:href="#DejaVuSans-6d" transform="translate(436.091797 0)"/>
      <use xlink:href="#DejaVuSans-69" transform="translate(533.503906 0)"/>
      <use xlink:href="#DejaVuSans-74" transform="translate(561.287109 0)"/>
      <use xlink:href="#DejaVuSans-65" transform="translate(600.496094 0)"/>
      <use xlink:href="#DejaVuSans-64" transform="translate(662.019531 0)"/>
      <use xlink:href="#DejaVuSans-2c" transform="translate(725.496094 0)"/>
      <use xlink:href="#DejaVuSans-20" transform="translate(757.283203 0)"/>
      <use xlink:href="#DejaVuSans-77" transform="translate(789.070312 0)"/>
      <use xlink:href="#DejaVuSans-6f" transform="translate(870.857422 0)"/>
      <use xlink:href="#DejaVuSans-72" transform="translate(932.039062 0)"/>
      <use xlink:href="#DejaVuSans-6b" transform="translate(973.152344 0)"/>
      <use xlink:href="#DejaVuSans-61" transform="translate(1029.3125 0)"/>
      <use xlink:href="#DejaVuSans-72" transform="translate(1090.591797 0)"/>
      <use xlink:href="#DejaVuSans-6f" transform="translate(1129.455078 0)"/>
      <use xlink:href="#DejaVuSans-75" transform="translate(1190.636719 0)"/>
      <use xlink:href="#DejaVuSans-6e" transform="translate(1254.015625 0)"/>
      <use xlink:href="#DejaVuSans-64" transform="translate(1317.394531 0)"/>
      <use xlink:href="#DejaVuSans-20" transform="translate(1380.871094 0)"/>
      <use xlink:href="#DejaVuSans-69" transform="translate(1412.658203 0)"/>
      <use xlink:href="#DejaVuSans-6e" transform="translate(1440.441406 0)"/>
      <use xlink:href="#DejaVuSans-73" transform="translate(1503.820312 0)"/>
      <use xlink:href="#DejaVuSans-75" transform="translate(1555.919922 0)"/>
      <use xlink:href="#DejaVuSans-66" transform="translate(1619.298828 0)"/>
      <use xlink:href="#DejaVuSans-66" transform="translate(1654.503906 0)"/>
      <use xlink:href="#DejaVuSans-69" transform="translate(1689.708984 0)"/>
      <use xlink:href="#DejaVuSans-63" transform="translate(1717.492188 0)"/>
      <use xlink:href="#DejaVuSans-69" transform="translate(1772.472656 0)"/>
      <use xlink:href="#DejaVuSans-65" transform="translate(1800.255859 0)"/>
      <use xlink:href="#DejaVuSans-6e" transform="translate(1861.779297 0)"/>
      <use xlink:href="#DejaVuSans-74" transform="translate(1925.158203 0)"/>
     </g>
    </g>
    <g id="PathCollection_12">
     <defs>
      <path id="mb2bca54add" d="M 0 3.24037 
C 0.859356 3.24037 1.683631 2.898944 2.291288 2.291288 
C 2.898944 1.683631 3.24037 0.859356 3.24037 0 
C 3.24037 -0.859356 2.898944 -1.683631 2.291288 -2.291288 
C 1.683631 -2.898944 0.859356 -3.24037 0 -3.24037 
C -0.859356 -3.24037 -1.683631 -2.898944 -2.291288 -2.291288 
C -2.898944 -1.683631 -3.24037 -0.859356 -3.24037 0 
C -3.24037 0.859356 -2.898944 1.683631 -2.291288 2.291288 
C -1.683631 2.898944 -0.859356 3.24037 0 3.24037 
z
" style="stroke: #ffffff; stroke-opacity: 0.78; stroke-width: 0.6"/>
     </defs>
     <g>
      <use xlink:href="#mb2bca54add" x="603.48325" y="220.683656" style="fill: #6b7280; fill-opacity: 0.78; stroke: #ffffff; stroke-opacity: 0.78; stroke-width: 0.6"/>
     </g>
    </g>
    <g id="text_21">
     <!-- No explicit Galaxy limitation -->
     <g transform="translate(621.48325 223.308656) scale(0.1 -0.1)">
      <defs>
       <path id="DejaVuSans-4e" d="M 628 4666 
L 1478 4666 
L 3547 763 
L 3547 4666 
L 4159 4666 
L 4159 0 
L 3309 0 
L 1241 3903 
L 1241 0 
L 628 0 
L 628 4666 
z
" transform="scale(0.015625)"/>
       <path id="DejaVuSans-70" d="M 1159 525 
L 1159 -1331 
L 581 -1331 
L 581 3500 
L 1159 3500 
L 1159 2969 
Q 1341 3281 1617 3432 
Q 1894 3584 2278 3584 
Q 2916 3584 3314 3078 
Q 3713 2572 3713 1747 
Q 3713 922 3314 415 
Q 2916 -91 2278 -91 
Q 1894 -91 1617 61 
Q 1341 213 1159 525 
z
M 3116 1747 
Q 3116 2381 2855 2742 
Q 2594 3103 2138 3103 
Q 1681 3103 1420 2742 
Q 1159 2381 1159 1747 
Q 1159 1113 1420 752 
Q 1681 391 2138 391 
Q 2594 391 2855 752 
Q 3116 1113 3116 1747 
z
" transform="scale(0.015625)"/>
      </defs>
      <use xlink:href="#DejaVuSans-4e"/>
      <use xlink:href="#DejaVuSans-6f" transform="translate(74.804688 0)"/>
      <use xlink:href="#DejaVuSans-20" transform="translate(135.986328 0)"/>
      <use xlink:href="#DejaVuSans-65" transform="translate(167.773438 0)"/>
      <use xlink:href="#DejaVuSans-78" transform="translate(227.546875 0)"/>
      <use xlink:href="#DejaVuSans-70" transform="translate(286.726562 0)"/>
      <use xlink:href="#DejaVuSans-6c" transform="translate(350.203125 0)"/>
      <use xlink:href="#DejaVuSans-69" transform="translate(377.986328 0)"/>
      <use xlink:href="#DejaVuSans-63" transform="translate(405.769531 0)"/>
      <use xlink:href="#DejaVuSans-69" transform="translate(460.75 0)"/>
      <use xlink:href="#DejaVuSans-74" transform="translate(488.533203 0)"/>
      <use xlink:href="#DejaVuSans-20" transform="translate(527.742188 0)"/>
      <use xlink:href="#DejaVuSans-47" transform="translate(559.529297 0)"/>
      <use xlink:href="#DejaVuSans-61" transform="translate(637.019531 0)"/>
      <use xlink:href="#DejaVuSans-6c" transform="translate(698.298828 0)"/>
      <use xlink:href="#DejaVuSans-61" transform="translate(726.082031 0)"/>
      <use xlink:href="#DejaVuSans-78" transform="translate(787.361328 0)"/>
      <use xlink:href="#DejaVuSans-79" transform="translate(846.541016 0)"/>
      <use xlink:href="#DejaVuSans-20" transform="translate(905.720703 0)"/>
      <use xlink:href="#DejaVuSans-6c" transform="translate(937.507812 0)"/>
      <use xlink:href="#DejaVuSans-69" transform="translate(965.291016 0)"/>
      <use xlink:href="#DejaVuSans-6d" transform="translate(993.074219 0)"/>
      <use xlink:href="#DejaVuSans-69" transform="translate(1090.486328 0)"/>
      <use xlink:href="#DejaVuSans-74" transform="translate(1118.269531 0)"/>
      <use xlink:href="#DejaVuSans-61" transform="translate(1157.478516 0)"/>
      <use xlink:href="#DejaVuSans-74" transform="translate(1218.757812 0)"/>
      <use xlink:href="#DejaVuSans-69" transform="translate(1257.966797 0)"/>
      <use xlink:href="#DejaVuSans-6f" transform="translate(1285.75 0)"/>
      <use xlink:href="#DejaVuSans-6e" transform="translate(1346.931641 0)"/>
     </g>
    </g>
   </g>
  </g>
 </g>
 <defs>
  <clipPath id="p30c27cf515">
   <rect x="43.78125" y="23.077969" width="530.1" height="321.552"/>
  </clipPath>
 </defs>
</svg>
